<?xml version="1.0" encoding="UTF-8"?>
<svg width="752pt" height="752pt" version="1.1" viewBox="0 0 752 752" xmlns="http://www.w3.org/2000/svg">
 <path d="m440.43 434.23c-2.8516-2.6914-7.3438-2.5508-10.039 0.28906l-32.039 33.926c-2.582 2.7383-2.5859 7.0195 0 9.7617l32.039 33.945c1.3984 1.4805 3.2773 2.2305 5.168 2.2305 1.7461 0 3.5039-0.64844 4.875-1.9414 2.8555-2.6914 2.9883-7.1875 0.29297-10.035l-27.43-29.074 27.43-29.055c2.6836-2.8516 2.5586-7.3477-0.29688-10.047zm89.414 34.242-32.039-33.945c-2.6836-2.8516-7.1836-2.9883-10.039-0.29688-2.8555 2.6914-2.9883 7.1875-0.29297 10.043l27.434 29.074-27.434 29.043c-2.6914 2.8594-2.5664 7.3555 0.29297 10.043 1.3672 1.293 3.125 1.9414 4.875 1.9414 1.8867 0 3.7656-0.75 5.168-2.2305l32.039-33.926c2.582-2.7344 2.582-7.0039-0.003906-9.7461zm-55.953-35.539c-3.8359-0.91406-7.6523 1.4258-8.582 5.2344l-16.238 66.988c-0.91797 3.8125 1.4219 7.6484 5.2266 8.5781 0.5625 0.13672 1.1289 0.20312 1.6758 0.20312 3.207 0 6.1094-2.1836 6.8984-5.4258l16.238-66.988c0.9375-3.8242-1.4023-7.6602-5.2188-8.5898zm-9.7852-58.742c-5.3984 0-10.66 0.55078-15.832 1.3867v-88.27c6.5273-0.003907 11.836-5.3086 11.836-11.84v-31.082c0-6.5273-5.3086-11.84-11.836-11.84v-51.102c0-19.586-15.93-35.52-35.52-35.52h-188.48c-19.586 0-35.52 15.93-35.52 35.52v389.13c0 19.582 15.93 35.52 35.52 35.52l188.48-0.003906c19.406 0 35.207-15.652 35.488-34.992 5.1797 0.84375 10.453 1.3984 15.859 1.3984 54.676 0 99.152-44.484 99.152-99.148 0-54.672-44.477-99.156-99.148-99.156zm-30.039 196.38c0 11.746-9.5625 21.312-21.312 21.312h-188.48c-11.75 0-21.312-9.5664-21.312-21.312v-346.9h194.34c3.9258 0 7.1055-3.1758 7.1055-7.1055 0-3.9258-3.1758-7.1055-7.1055-7.1055l-194.34 0.003907v-28.02c0-11.75 9.5625-21.312 21.312-21.312h188.48c11.75 0 21.312 9.5625 21.312 21.312v197.43c-40.031 12.754-69.117 50.27-69.117 94.477 0 44.195 29.086 81.711 69.117 94.465zm30.039-12.285c-46.844 0-84.949-38.109-84.949-84.941 0-46.844 38.109-84.949 84.949-84.949 46.836 0 84.945 38.109 84.945 84.949-0.003906 46.832-38.113 84.941-84.945 84.941zm-139.67-32.055c-15.031 0-27.258 12.227-27.258 27.258s12.227 27.258 27.258 27.258 27.258-12.227 27.258-27.258-12.227-27.258-27.258-27.258zm0 40.305c-7.1992 0-13.051-5.8516-13.051-13.051s5.8516-13.051 13.051-13.051c7.1992 0 13.051 5.8516 13.051 13.051s-5.8555 13.051-13.051 13.051zm40.957-393.18c-6.0391 0-10.953 4.9141-10.953 10.953 0 6.0391 4.9141 10.953 10.953 10.953 6.0391 0 10.953-4.9141 10.953-10.953 0.003906-6.0391-4.9141-10.953-10.953-10.953zm0 14.207c-1.793 0-3.2578-1.4648-3.2578-3.2578s1.4648-3.2578 3.2578-3.2578 3.2578 1.4648 3.2578 3.2578c0.003907 1.793-1.4609 3.2578-3.2578 3.2578z"/>
</svg>
