<svg width="159" height="45" viewBox="0 0 159 45" fill="none" xmlns="http://www.w3.org/2000/svg">
<rect x="0.75" y="1.72314" width="157.5" height="42.4911" rx="21.2456" fill="white" stroke="black" stroke-width="1.5"/>
<path d="M49.6437 26.6396C49.3385 27.3421 48.9772 27.9887 48.5586 28.5831C47.9881 29.3935 47.5209 29.9545 47.1609 30.266C46.6027 30.7773 46.0048 31.0392 45.3644 31.0541C44.9047 31.0541 44.3504 30.9238 43.705 30.6594C43.0576 30.3963 42.4626 30.266 41.9186 30.266C41.348 30.266 40.7361 30.3963 40.0815 30.6594C39.426 30.9238 38.8979 31.0615 38.4942 31.0752C37.8801 31.1012 37.2681 30.8319 36.6571 30.266C36.2672 29.9272 35.7795 29.3464 35.1952 28.5236C34.5683 27.6449 34.0529 26.626 33.6492 25.4644C33.2168 24.2097 33 22.9947 33 21.8184C33 20.471 33.2923 19.3088 33.8777 18.335C34.3377 17.5528 34.9498 16.9357 35.7158 16.4827C36.4818 16.0297 37.3095 15.7989 38.2009 15.7841C38.6886 15.7841 39.3282 15.9344 40.123 16.2298C40.9156 16.5262 41.4245 16.6764 41.6476 16.6764C41.8144 16.6764 42.3798 16.5007 43.3382 16.1504C44.2445 15.8255 45.0094 15.6909 45.636 15.7439C47.334 15.8804 48.6097 16.5473 49.4581 17.7486C47.9395 18.6652 47.1883 19.9491 47.2032 21.5961C47.2169 22.879 47.6841 23.9465 48.6022 24.7942C49.0183 25.1876 49.483 25.4917 50 25.7076C49.8879 26.0315 49.7695 26.3418 49.6437 26.6396ZM45.7494 11.3734C45.7494 12.3789 45.3806 13.3178 44.6456 14.1868C43.7586 15.2198 42.6857 15.8168 41.5223 15.7226C41.5075 15.6019 41.4989 15.475 41.4989 15.3416C41.4989 14.3763 41.9207 13.3432 42.6698 12.4986C43.0438 12.0709 43.5194 11.7153 44.0962 11.4316C44.6718 11.1522 45.2162 10.9977 45.7282 10.9712C45.7431 11.1056 45.7494 11.24 45.7494 11.3734V11.3734Z" fill="black"/>
<path d="M62.168 26.9702H63.848L64.912 24.3522H69.238L70.288 26.9702H71.982L67.978 17.1702H66.172L62.168 26.9702ZM65.5 22.8822L67.068 18.9902L68.636 22.8822H65.5ZM72.6485 30.1202H74.1885V26.1722C74.7485 26.8582 75.4905 27.1942 76.4285 27.1942C78.2625 27.1942 79.5925 25.5842 79.5925 23.5822C79.5925 21.5662 78.2625 19.9842 76.4285 19.9842C75.4905 19.9842 74.7345 20.3202 74.1885 20.9922V20.1942H72.6485V30.1202ZM76.1065 25.7102C74.9865 25.7102 74.1885 24.8142 74.1885 23.5822C74.1885 22.3502 74.9725 21.4682 76.1065 21.4682C77.2685 21.4682 78.0525 22.3502 78.0525 23.5822C78.0525 24.8142 77.2405 25.7102 76.1065 25.7102ZM80.5306 30.1202H82.0706V26.1722C82.6306 26.8582 83.3726 27.1942 84.3106 27.1942C86.1446 27.1942 87.4746 25.5842 87.4746 23.5822C87.4746 21.5662 86.1446 19.9842 84.3106 19.9842C83.3726 19.9842 82.6166 20.3202 82.0706 20.9922V20.1942H80.5306V30.1202ZM83.9886 25.7102C82.8686 25.7102 82.0706 24.8142 82.0706 23.5822C82.0706 22.3502 82.8546 21.4682 83.9886 21.4682C85.1506 21.4682 85.9346 22.3502 85.9346 23.5822C85.9346 24.8142 85.1226 25.7102 83.9886 25.7102ZM90.9527 23.6942C91.1347 24.7722 91.6107 25.6122 92.3527 26.2422C93.0947 26.8722 94.0327 27.1802 95.1387 27.1802C97.4067 27.1802 98.9187 25.9062 98.9187 24.0302C98.9187 22.2382 97.6587 21.3002 95.1387 21.0342C93.6687 20.8802 93.0807 20.4602 93.0807 19.6622C93.0807 18.9482 93.8647 18.4442 94.9847 18.4442C96.0487 18.4442 96.8887 19.1862 97.1547 20.3482L98.6387 19.7742C98.4427 18.9202 98.0087 18.2482 97.3507 17.7442C96.6927 17.2262 95.8947 16.9742 94.9847 16.9742C93.0107 16.9742 91.5407 18.0942 91.5407 19.6342C91.5407 21.3562 92.6607 22.3362 94.9147 22.5742C96.6087 22.7562 97.3787 23.2602 97.3787 24.0862C97.3647 25.0522 96.5247 25.6962 95.1387 25.6962C93.6967 25.6962 92.7027 24.7722 92.4087 23.1902L90.9527 23.6942ZM99.2146 21.5382H100.391V24.5902C100.391 26.2002 101.399 27.1802 103.065 27.1802C104.535 27.1802 105.599 26.1162 105.515 24.4782L104.045 24.3382C104.115 25.2342 103.695 25.7802 103.009 25.7802C102.337 25.7802 101.931 25.3742 101.931 24.6322V21.5382H105.263V20.1942H101.931V18.2062H100.391V20.1942H99.2146V21.5382ZM109.481 19.9842C107.423 19.9842 105.953 21.5662 105.953 23.5962C105.953 25.6262 107.409 27.1802 109.481 27.1802C111.567 27.1802 112.995 25.6262 112.995 23.5962C112.995 21.5662 111.553 19.9842 109.481 19.9842ZM109.481 25.6962C108.907 25.6962 108.431 25.5002 108.053 25.1082C107.675 24.7022 107.493 24.1982 107.493 23.5962C107.493 22.9802 107.675 22.4762 108.053 22.0702C108.431 21.6642 108.907 21.4682 109.481 21.4682C110.055 21.4682 110.517 21.6782 110.895 22.0842C111.273 22.4902 111.455 22.9942 111.455 23.5962C111.455 24.1982 111.273 24.7022 110.895 25.1082C110.517 25.5002 110.055 25.6962 109.481 25.6962ZM113.939 26.9702H115.479V23.2322C115.479 22.0562 115.997 21.3982 116.739 21.3982C117.369 21.3982 117.747 21.8462 117.747 22.7002C117.747 22.8262 117.747 22.9102 117.733 22.9802L119.259 22.7422C119.315 20.8942 118.517 19.9702 117.229 19.9702C116.459 19.9702 115.871 20.2922 115.479 20.8382V20.1942H113.939V26.9702ZM123.04 19.9842C121.038 19.9842 119.68 21.5662 119.68 23.5962C119.68 25.6402 121.052 27.1802 123.11 27.1802C124.706 27.1802 126.05 26.1442 126.274 24.6742L124.846 24.4082C124.72 25.2482 124.02 25.8082 123.138 25.8082C122.06 25.8082 121.29 25.1082 121.122 23.9462H126.092V23.2322C126.092 21.3282 124.874 19.9842 123.04 19.9842ZM121.192 22.7422C121.43 21.8882 122.13 21.3142 123.04 21.3142C123.992 21.3142 124.664 21.9442 124.706 22.7422H121.192Z" fill="black"/>
</svg>
