<svg width="130" height="40" viewBox="0 0 130 40" fill="none" xmlns="http://www.w3.org/2000/svg">
<path d="M119.674 0H10.3261C10 0 9.56522 0 9.13043 0C8.80435 0 8.47826 0 8.15217 0C7.3913 0 6.73913 0.1 5.97826 0.2C5.21739 0.3 4.56522 0.5 3.91304 0.8C3.26087 1.1 2.71739 1.5 2.17391 2C1.63043 2.5 1.19565 3 0.869565 3.6C0.543478 4.2 0.326087 4.9 0.217391 5.5C0.108696 6.2 0 6.9 0 7.5C0 7.8 0 8.1 0 8.4C0 8.8 0 9.1 0 9.5V30.4C0 30.8 0 31.1 0 31.5C0 31.8 0 32.1 0 32.4C0 33.1 0.108696 33.7 0.217391 34.4C0.326087 35.1 0.543478 35.7 0.869565 36.3C1.19565 37 1.63043 37.5 2.17391 38C2.71739 38.5 3.26087 38.9 3.91304 39.2C4.56522 39.5 5.21739 39.7 5.97826 39.8C6.73913 39.9 7.3913 40 8.15217 40C8.47826 40 8.80435 40 9.13043 40C9.56522 40 9.8913 40 10.3261 40H119.674C120.109 40 120.435 40 120.87 40C121.196 40 121.522 40 121.848 40C122.609 40 123.261 39.9 124.022 39.8C124.783 39.7 125.435 39.5 126.087 39.2C126.739 38.9 127.283 38.5 127.826 38C128.37 37.5 128.804 37 129.13 36.4C129.457 35.8 129.674 35.2 129.783 34.5C129.891 33.8 130 33.2 130 32.5C130 32.2 130 31.9 130 31.6C130 31.2 130 30.9 130 30.5V9.5C130 9.1 130 8.8 130 8.4C130 8.1 130 7.8 130 7.5C130 6.8 129.891 6.2 129.783 5.5C129.674 4.8 129.457 4.2 129.13 3.6C128.804 3 128.37 2.5 127.826 2C127.283 1.5 126.739 1.1 126.087 0.8C125.435 0.5 124.783 0.3 124.022 0.2C123.261 0.1 122.609 0 121.848 0C121.522 0 121.196 0 120.87 0C120.543 0 120.109 0 119.674 0Z" fill="#B1B3B6"/>
<path d="M9.1305 39.0997C8.80441 39.0997 8.47832 39.0997 8.15224 39.0997C7.50006 39.0997 6.84789 39.0997 6.08702 38.8997C5.43485 38.7997 4.78267 38.5997 4.23919 38.3997C3.69572 38.0997 3.15224 37.7997 2.71746 37.3997C2.28267 36.9997 1.84789 36.4997 1.6305 35.9997C1.30441 35.4997 1.19572 34.9997 1.08702 34.2997C0.978325 33.5997 0.869629 32.8997 0.869629 32.3997C0.869629 32.1997 0.869629 31.4997 0.869629 31.4997V8.39966C0.869629 8.39966 0.869629 7.69966 0.869629 7.49966C0.869629 6.99966 0.869629 6.29966 1.08702 5.59966C1.30441 5.09966 1.41311 4.49966 1.73919 3.99966C2.06528 3.49966 2.39137 2.99966 2.82615 2.59966C3.26093 2.19966 3.80441 1.89966 4.34789 1.59966C4.89137 1.29966 5.54354 1.19966 6.19572 1.09966C6.84789 0.899658 7.60876 0.899658 8.15224 0.899658H9.1305H120.87H121.848C122.391 0.899658 123.152 0.899658 123.913 1.09966C124.565 1.19966 125.109 1.39966 125.761 1.59966C126.304 1.89966 126.848 2.19966 127.283 2.59966C127.717 2.99966 128.152 3.49966 128.37 3.99966C128.696 4.49966 128.804 5.09966 128.913 5.59966C129.022 6.19966 129.13 6.89966 129.13 7.49966C129.13 7.79966 129.13 8.09966 129.13 8.39966C129.13 8.79966 129.13 9.09966 129.13 9.49966V30.3997C129.13 30.7997 129.13 31.0997 129.13 31.4997C129.13 31.7997 129.13 32.0997 129.13 32.3997C129.13 32.9997 129.022 33.5997 128.913 34.2997C128.804 34.8997 128.587 35.4997 128.37 35.9997C128.044 36.4997 127.717 36.9997 127.283 37.3997C126.848 37.7997 126.304 38.1997 125.761 38.3997C125.217 38.6997 124.674 38.7997 123.913 38.8997C123.261 38.9997 122.5 38.9996 121.848 39.0997C121.522 39.0997 121.196 39.0997 120.87 39.0997H119.674H9.1305Z" fill="black"/>
<path d="M25.0355 20.2999C25.0355 17.4999 27.3573 16.1999 27.4583 16.0999C26.1459 14.1999 24.127 13.9999 23.4203 13.8999C21.7042 13.6999 20.089 14.8999 19.1805 14.8999C18.2719 14.8999 16.9596 13.8999 15.5463 13.8999C13.7292 13.8999 12.0131 14.9999 11.0036 16.5999C9.0856 19.8999 10.4989 24.8999 12.4169 27.5999C13.3254 28.8999 14.4359 30.3999 15.8492 30.3999C17.2625 30.2999 17.7672 29.4999 19.4833 29.4999C21.1995 29.4999 21.6032 30.3999 23.1175 30.3999C24.6317 30.3999 25.5402 29.0999 26.4488 27.6999C27.5592 26.1999 27.963 24.6999 27.963 24.5999C27.963 24.6999 25.0355 23.5999 25.0355 20.2999Z" fill="white"/>
<path d="M22.2087 12.1997C22.9153 11.2997 23.521 9.99971 23.3191 8.69971C22.2087 8.69971 20.8964 9.39971 20.0888 10.3997C19.3821 11.1997 18.7764 12.4997 18.9783 13.7997C20.1897 13.7997 21.502 13.0997 22.2087 12.1997Z" fill="white"/>
<path d="M42.7016 27.0999H37.957L36.8466 30.4999H34.8276L39.3703 18.0999H41.3893L45.932 30.4999H43.913L42.7016 27.0999ZM38.4618 25.5999H42.2978L40.3798 20.0999H40.2789L38.4618 25.5999Z" fill="white"/>
<path d="M55.7242 25.9998C55.7242 28.7998 54.21 30.5998 51.8881 30.5998C50.5758 30.5998 49.5663 29.9998 49.0616 28.9998V33.4998H47.1436V21.4998H48.9606V22.9998C49.4654 21.9998 50.5758 21.3998 51.8881 21.3998C54.109 21.2998 55.7242 23.1998 55.7242 25.9998ZM53.7052 25.9998C53.7052 24.1998 52.7967 22.9998 51.2825 22.9998C49.8692 22.9998 48.8597 24.1998 48.8597 25.9998C48.8597 27.7998 49.8692 28.9998 51.2825 28.9998C52.7967 28.9998 53.7052 27.7998 53.7052 25.9998Z" fill="white"/>
<path d="M65.7183 25.9998C65.7183 28.7998 64.2041 30.5998 61.8823 30.5998C60.57 30.5998 59.5605 29.9998 59.0557 28.9998V33.4998H57.1377V21.4998H58.9548V22.9998C59.4595 21.9998 60.57 21.3998 61.8823 21.3998C64.2041 21.2998 65.7183 23.1998 65.7183 25.9998ZM63.8003 25.9998C63.8003 24.1998 62.8918 22.9998 61.3775 22.9998C59.9643 22.9998 58.9548 24.1998 58.9548 25.9998C58.9548 27.7998 59.9643 28.9998 61.3775 28.9998C62.8918 28.9998 63.8003 27.7998 63.8003 25.9998Z" fill="white"/>
<path d="M72.3807 26.9999C72.4816 28.1999 73.693 28.9999 75.4091 28.9999C77.0243 28.9999 78.1348 28.1999 78.1348 27.0999C78.1348 26.0999 77.4281 25.5999 75.8129 25.1999L74.1978 24.7999C71.8759 24.1999 70.8664 23.1999 70.8664 21.4999C70.8664 19.3999 72.7845 17.8999 75.4091 17.8999C78.0338 17.8999 79.8509 19.3999 79.9518 21.4999H78.0338C77.9329 20.2999 76.9234 19.4999 75.4091 19.4999C73.8949 19.4999 72.8854 20.2999 72.8854 21.3999C72.8854 22.2999 73.5921 22.7999 75.2072 23.1999L76.6205 23.4999C79.1443 24.0999 80.2547 25.0999 80.2547 26.8999C80.2547 29.1999 78.3367 30.6999 75.4091 30.6999C72.5826 30.6999 70.7655 29.2999 70.6646 26.9999H72.3807Z" fill="white"/>
<path d="M84.0908 19.2996V21.3996H85.807V22.8996H84.0908V27.8996C84.0908 28.6996 84.3937 28.9996 85.2013 28.9996C85.4032 28.9996 85.706 28.9996 85.807 28.9996V30.4996C85.6051 30.5996 85.2013 30.5996 84.7975 30.5996C82.9804 30.5996 82.2738 29.8996 82.2738 28.1996V22.9996H80.9614V21.4996H82.2738V19.3996H84.0908V19.2996Z" fill="white"/>
<path d="M86.917 25.9999C86.917 23.1999 88.6331 21.3999 91.2578 21.3999C93.8825 21.3999 95.5986 23.1999 95.5986 25.9999C95.5986 28.8999 93.8825 30.5999 91.2578 30.5999C88.5322 30.5999 86.917 28.7999 86.917 25.9999ZM93.6806 25.9999C93.6806 23.9999 92.772 22.8999 91.2578 22.8999C89.7436 22.8999 88.835 23.9999 88.835 25.9999C88.835 27.9999 89.7436 29.0999 91.2578 29.0999C92.772 29.0999 93.6806 27.8999 93.6806 25.9999Z" fill="white"/>
<path d="M97.1133 21.3999H98.9304V22.9999C99.2332 21.9999 100.041 21.3999 101.151 21.3999C101.454 21.3999 101.656 21.3999 101.757 21.4999V23.1999C101.656 23.0999 101.252 23.0999 100.949 23.0999C99.738 23.0999 99.0313 23.8999 99.0313 25.1999V30.5999H97.1133V21.3999Z" fill="white"/>
<path d="M110.438 27.7998C110.237 29.3998 108.52 30.5998 106.501 30.5998C103.877 30.5998 102.161 28.7998 102.161 25.9998C102.161 23.1998 103.776 21.2998 106.4 21.2998C108.924 21.2998 110.539 22.9998 110.539 25.7998V26.3998H104.079V26.4998C104.079 27.9998 105.088 29.0998 106.501 29.0998C107.511 29.0998 108.319 28.5998 108.621 27.7998H110.438ZM104.079 25.0998H108.621C108.621 23.6998 107.713 22.7998 106.4 22.7998C105.088 22.7998 104.18 23.7998 104.079 25.0998Z" fill="white"/>
<path d="M38.1584 8.69971C39.9755 8.69971 40.9849 9.79971 40.9849 11.6997C40.9849 13.5997 39.9755 14.6997 38.1584 14.6997H35.9375V8.69971H38.1584ZM36.947 13.8997H38.0574C39.2688 13.8997 40.0764 13.0997 40.0764 11.7997C40.0764 10.4997 39.3698 9.69971 38.0574 9.69971H36.947V13.8997Z" fill="white"/>
<path d="M42.0957 12.3999C42.0957 10.8999 42.9033 10.0999 44.2156 10.0999C45.528 10.0999 46.3356 10.9999 46.3356 12.3999C46.3356 13.8999 45.528 14.6999 44.2156 14.6999C42.9033 14.7999 42.0957 13.8999 42.0957 12.3999ZM45.427 12.3999C45.427 11.3999 45.0232 10.8999 44.2156 10.8999C43.408 10.8999 43.0042 11.4999 43.0042 12.3999C43.0042 13.3999 43.408 13.9999 44.2156 13.9999C45.0232 13.9999 45.427 13.3999 45.427 12.3999Z" fill="white"/>
<path d="M52.0891 14.6997H51.1805L50.272 11.3997H50.171L49.2625 14.6997H48.354L47.1426 10.1997H48.0511L48.8587 13.5997H48.9597L49.8682 10.1997H50.7767L51.6853 13.5997H51.7862L52.5938 10.1997H53.5024L52.0891 14.6997Z" fill="white"/>
<path d="M54.4111 10.1999H55.3197V10.8999H55.4206C55.6225 10.3999 56.1273 10.0999 56.733 10.0999C57.7424 10.0999 58.3481 10.6999 58.3481 11.7999V14.6999H57.4396V11.9999C57.4396 11.2999 57.1368 10.8999 56.4301 10.8999C55.7235 10.8999 55.3197 11.2999 55.3197 11.9999V14.5999H54.4111V10.1999Z" fill="white"/>
<path d="M59.6606 8.39966H60.5692V14.6997H59.6606V8.39966Z" fill="white"/>
<path d="M61.7803 12.3999C61.7803 10.8999 62.5879 10.0999 63.9002 10.0999C65.2125 10.0999 66.0201 10.9999 66.0201 12.3999C66.0201 13.8999 65.2125 14.6999 63.9002 14.6999C62.5879 14.7999 61.7803 13.8999 61.7803 12.3999ZM65.2125 12.3999C65.2125 11.3999 64.8087 10.8999 64.0011 10.8999C63.1936 10.8999 62.7898 11.4999 62.7898 12.3999C62.7898 13.3999 63.1936 13.9999 64.0011 13.9999C64.7078 13.9999 65.2125 13.3999 65.2125 12.3999Z" fill="white"/>
<path d="M67.0298 13.3999C67.0298 12.5999 67.6355 12.0999 68.7459 12.0999L69.9573 11.9999V11.5999C69.9573 11.0999 69.6545 10.8999 69.0488 10.8999C68.544 10.8999 68.2412 11.0999 68.1402 11.3999H67.2317C67.3326 10.5999 68.0393 10.0999 69.0488 10.0999C70.1592 10.0999 70.8658 10.6999 70.8658 11.5999V14.6999H69.9573V14.0999H69.8563C69.5535 14.5999 69.0488 14.7999 68.4431 14.7999C67.6355 14.7999 67.0298 14.1999 67.0298 13.3999ZM69.9573 12.9999V12.5999L68.8469 12.6999C68.2412 12.6999 67.9383 12.9999 67.9383 13.2999C67.9383 13.6999 68.3421 13.8999 68.7459 13.8999C69.4526 13.9999 69.9573 13.5999 69.9573 12.9999Z" fill="white"/>
<path d="M71.9761 12.3997C71.9761 10.9997 72.6827 10.0997 73.8941 10.0997C74.4998 10.0997 75.0045 10.3997 75.3074 10.8997H75.4083V8.39966H76.3169V14.6997H75.4083V13.9997H75.3074C75.0045 14.4997 74.4998 14.7997 73.8941 14.7997C72.7837 14.7997 71.9761 13.8997 71.9761 12.3997ZM72.9856 12.3997C72.9856 13.3997 73.4903 13.8997 74.197 13.8997C74.9036 13.8997 75.4083 13.2997 75.4083 12.3997C75.4083 11.4997 74.9036 10.8997 74.197 10.8997C73.3894 10.8997 72.9856 11.4997 72.9856 12.3997Z" fill="white"/>
<path d="M79.9512 12.3999C79.9512 10.8999 80.7588 10.0999 82.0711 10.0999C83.3834 10.0999 84.191 10.9999 84.191 12.3999C84.191 13.8999 83.3834 14.6999 82.0711 14.6999C80.7588 14.7999 79.9512 13.8999 79.9512 12.3999ZM83.3834 12.3999C83.3834 11.3999 82.9796 10.8999 82.172 10.8999C81.3645 10.8999 80.9607 11.4999 80.9607 12.3999C80.9607 13.3999 81.3645 13.9999 82.172 13.9999C82.8787 13.9999 83.3834 13.3999 83.3834 12.3999Z" fill="white"/>
<path d="M85.5034 10.1999H86.412V10.8999H86.5129C86.7148 10.3999 87.2196 10.0999 87.8252 10.0999C88.8347 10.0999 89.4404 10.6999 89.4404 11.7999V14.6999H88.5319V11.9999C88.5319 11.2999 88.229 10.8999 87.5224 10.8999C86.8158 10.8999 86.412 11.2999 86.412 11.9999V14.5999H85.5034V10.1999Z" fill="white"/>
<path d="M94.387 9.1001V10.2001H95.3965V11.0001H94.387V13.3001C94.387 13.8001 94.5889 14.0001 94.9927 14.0001C95.0937 14.0001 95.1946 14.0001 95.2956 14.0001V14.7001C95.1946 14.7001 94.9927 14.7001 94.7908 14.7001C93.7813 14.7001 93.3775 14.4001 93.3775 13.5001V11.0001H92.6709V10.3001H93.3775V9.1001H94.387Z" fill="white"/>
<path d="M96.6074 8.39966H97.516V10.8997H97.6169C97.8188 10.3997 98.3236 10.0997 99.0302 10.0997C100.04 10.0997 100.645 10.6997 100.645 11.7997V14.6997H99.7368V11.9997C99.7368 11.2997 99.434 10.8997 98.7274 10.8997C98.0207 10.8997 97.6169 11.3997 97.6169 11.9997V14.5997H96.7084V8.39966H96.6074Z" fill="white"/>
<path d="M105.794 13.4999C105.592 14.2999 104.886 14.7999 103.775 14.7999C102.463 14.7999 101.655 13.8999 101.655 12.4999C101.655 11.0999 102.463 10.0999 103.775 10.0999C105.088 10.0999 105.794 10.9999 105.794 12.3999V12.6999H102.564C102.564 13.4999 103.069 13.9999 103.775 13.9999C104.28 13.9999 104.684 13.7999 104.886 13.4999H105.794ZM102.564 11.9999H104.886C104.886 11.2999 104.381 10.7999 103.775 10.7999C103.069 10.8999 102.665 11.2999 102.564 11.9999Z" fill="white"/>
</svg>
