<svg id="visual" viewBox="0 0 900 450" width="900" height="450" xmlns="http://www.w3.org/2000/svg" xmlns:xlink="http://www.w3.org/1999/xlink" version="1.1"><rect x="0" y="0" width="900" height="450" fill="#001220"></rect><defs><linearGradient id="grad1_0" x1="50%" y1="0%" x2="100%" y2="100%"><stop offset="10%" stop-color="#fbae3c" stop-opacity="1"></stop><stop offset="90%" stop-color="#fbae3c" stop-opacity="1"></stop></linearGradient></defs><defs><linearGradient id="grad1_1" x1="50%" y1="0%" x2="100%" y2="100%"><stop offset="10%" stop-color="#fbae3c" stop-opacity="1"></stop><stop offset="90%" stop-color="#f48350" stop-opacity="1"></stop></linearGradient></defs><defs><linearGradient id="grad1_2" x1="50%" y1="0%" x2="100%" y2="100%"><stop offset="10%" stop-color="#d96162" stop-opacity="1"></stop><stop offset="90%" stop-color="#f48350" stop-opacity="1"></stop></linearGradient></defs><defs><linearGradient id="grad1_3" x1="50%" y1="0%" x2="100%" y2="100%"><stop offset="10%" stop-color="#d96162" stop-opacity="1"></stop><stop offset="90%" stop-color="#af4b6d" stop-opacity="1"></stop></linearGradient></defs><defs><linearGradient id="grad1_4" x1="50%" y1="0%" x2="100%" y2="100%"><stop offset="10%" stop-color="#7c3e6b" stop-opacity="1"></stop><stop offset="90%" stop-color="#af4b6d" stop-opacity="1"></stop></linearGradient></defs><defs><linearGradient id="grad1_5" x1="50%" y1="0%" x2="100%" y2="100%"><stop offset="10%" stop-color="#7c3e6b" stop-opacity="1"></stop><stop offset="90%" stop-color="#49335c" stop-opacity="1"></stop></linearGradient></defs><defs><linearGradient id="grad1_6" x1="50%" y1="0%" x2="100%" y2="100%"><stop offset="10%" stop-color="#1d2540" stop-opacity="1"></stop><stop offset="90%" stop-color="#49335c" stop-opacity="1"></stop></linearGradient></defs><defs><linearGradient id="grad1_7" x1="50%" y1="0%" x2="100%" y2="100%"><stop offset="10%" stop-color="#1d2540" stop-opacity="1"></stop><stop offset="90%" stop-color="#001220" stop-opacity="1"></stop></linearGradient></defs><defs><linearGradient id="grad2_0" x1="0%" y1="0%" x2="50%" y2="100%"><stop offset="10%" stop-color="#fbae3c" stop-opacity="1"></stop><stop offset="90%" stop-color="#fbae3c" stop-opacity="1"></stop></linearGradient></defs><defs><linearGradient id="grad2_1" x1="0%" y1="0%" x2="50%" y2="100%"><stop offset="10%" stop-color="#f48350" stop-opacity="1"></stop><stop offset="90%" stop-color="#fbae3c" stop-opacity="1"></stop></linearGradient></defs><defs><linearGradient id="grad2_2" x1="0%" y1="0%" x2="50%" y2="100%"><stop offset="10%" stop-color="#f48350" stop-opacity="1"></stop><stop offset="90%" stop-color="#d96162" stop-opacity="1"></stop></linearGradient></defs><defs><linearGradient id="grad2_3" x1="0%" y1="0%" x2="50%" y2="100%"><stop offset="10%" stop-color="#af4b6d" stop-opacity="1"></stop><stop offset="90%" stop-color="#d96162" stop-opacity="1"></stop></linearGradient></defs><defs><linearGradient id="grad2_4" x1="0%" y1="0%" x2="50%" y2="100%"><stop offset="10%" stop-color="#af4b6d" stop-opacity="1"></stop><stop offset="90%" stop-color="#7c3e6b" stop-opacity="1"></stop></linearGradient></defs><defs><linearGradient id="grad2_5" x1="0%" y1="0%" x2="50%" y2="100%"><stop offset="10%" stop-color="#49335c" stop-opacity="1"></stop><stop offset="90%" stop-color="#7c3e6b" stop-opacity="1"></stop></linearGradient></defs><defs><linearGradient id="grad2_6" x1="0%" y1="0%" x2="50%" y2="100%"><stop offset="10%" stop-color="#49335c" stop-opacity="1"></stop><stop offset="90%" stop-color="#1d2540" stop-opacity="1"></stop></linearGradient></defs><defs><linearGradient id="grad2_7" x1="0%" y1="0%" x2="50%" y2="100%"><stop offset="10%" stop-color="#001220" stop-opacity="1"></stop><stop offset="90%" stop-color="#1d2540" stop-opacity="1"></stop></linearGradient></defs><g transform="translate(900, 0)"><path d="M0 180C-16.2 169.3 -32.4 158.6 -50.1 154.1C-67.7 149.5 -86.9 151.2 -105.2 144.8C-123.5 138.4 -141 124 -145.6 105.8C-150.2 87.6 -141.9 65.5 -145.5 47.3C-149.1 29 -164.5 14.5 -180 0L0 0Z" fill="#0c1c30"></path><path d="M0 157.5C-14.2 148.1 -28.3 138.8 -43.8 134.8C-59.3 130.9 -76 132.3 -92.1 126.7C-108.1 121.1 -123.4 108.5 -127.4 92.6C-131.4 76.6 -124.2 57.4 -127.3 41.4C-130.5 25.4 -144 12.7 -157.5 0L0 0Z" fill="#312c4f"></path><path d="M0 135C-12.1 127 -24.3 118.9 -37.5 115.6C-50.8 112.2 -65.2 113.4 -78.9 108.6C-92.7 103.8 -105.8 93 -109.2 79.4C-112.7 65.7 -106.4 49.2 -109.1 35.5C-111.8 21.8 -123.4 10.9 -135 0L0 0Z" fill="#623965"></path><path d="M0 112.5C-10.1 105.8 -20.2 99.1 -31.3 96.3C-42.3 93.5 -54.3 94.5 -65.8 90.5C-77.2 86.5 -88.1 77.5 -91 66.1C-93.9 54.7 -88.7 41 -90.9 29.5C-93.2 18.1 -102.8 9.1 -112.5 0L0 0Z" fill="#96446e"></path><path d="M0 90C-8.1 84.6 -16.2 79.3 -25 77C-33.9 74.8 -43.4 75.6 -52.6 72.4C-61.8 69.2 -70.5 62 -72.8 52.9C-75.1 43.8 -71 32.8 -72.8 23.6C-74.5 14.5 -82.3 7.3 -90 0L0 0Z" fill="#c55469"></path><path d="M0 67.5C-6.1 63.5 -12.1 59.5 -18.8 57.8C-25.4 56.1 -32.6 56.7 -39.5 54.3C-46.3 51.9 -52.9 46.5 -54.6 39.7C-56.3 32.8 -53.2 24.6 -54.6 17.7C-55.9 10.9 -61.7 5.4 -67.5 0L0 0Z" fill="#e9705a"></path><path d="M0 45C-4 42.3 -8.1 39.6 -12.5 38.5C-16.9 37.4 -21.7 37.8 -26.3 36.2C-30.9 34.6 -35.3 31 -36.4 26.5C-37.6 21.9 -35.5 16.4 -36.4 11.8C-37.3 7.3 -41.1 3.6 -45 0L0 0Z" fill="#fa9845"></path><path d="M0 22.5C-2 21.2 -4 19.8 -6.3 19.3C-8.5 18.7 -10.9 18.9 -13.2 18.1C-15.4 17.3 -17.6 15.5 -18.2 13.2C-18.8 10.9 -17.7 8.2 -18.2 5.9C-18.6 3.6 -20.6 1.8 -22.5 0L0 0Z" fill="#fbae3c"></path></g><g transform="translate(0, 450)"><path d="M0 -180C17.6 -175.4 35.3 -170.9 54.1 -166.4C72.9 -162 92.9 -157.6 105.8 -145.6C118.7 -133.6 124.5 -113.9 135.1 -98.2C145.7 -82.4 161 -70.7 169.3 -55C177.6 -39.3 178.8 -19.7 180 0L0 0Z" fill="#0c1c30"></path><path d="M0 -157.5C15.4 -153.5 30.9 -149.5 47.3 -145.6C63.8 -141.7 81.3 -137.9 92.6 -127.4C103.9 -116.9 109 -99.6 118.2 -85.9C127.5 -72.1 140.9 -61.9 148.1 -48.1C155.4 -34.4 156.4 -17.2 157.5 0L0 0Z" fill="#312c4f"></path><path d="M0 -135C13.2 -131.6 26.4 -128.2 40.6 -124.8C54.7 -121.5 69.7 -118.2 79.4 -109.2C89 -100.2 93.4 -85.4 101.3 -73.6C109.3 -61.8 120.8 -53 127 -41.3C133.2 -29.5 134.1 -14.7 135 0L0 0Z" fill="#623965"></path><path d="M0 -112.5C11 -109.7 22 -106.8 33.8 -104C45.6 -101.2 58.1 -98.5 66.1 -91C74.2 -83.5 77.8 -71.2 84.4 -61.4C91.1 -51.5 100.6 -44.2 105.8 -34.4C111 -24.6 111.7 -12.3 112.5 0L0 0Z" fill="#96446e"></path><path d="M0 -90C8.8 -87.7 17.6 -85.4 27 -83.2C36.4 -81 46.4 -78.8 52.9 -72.8C59.4 -66.8 62.3 -56.9 67.6 -49.1C72.8 -41.2 80.5 -35.4 84.6 -27.5C88.8 -19.7 89.4 -9.8 90 0L0 0Z" fill="#c55469"></path><path d="M0 -67.5C6.6 -65.8 13.2 -64.1 20.3 -62.4C27.3 -60.7 34.8 -59.1 39.7 -54.6C44.5 -50.1 46.7 -42.7 50.7 -36.8C54.6 -30.9 60.4 -26.5 63.5 -20.6C66.6 -14.7 67 -7.4 67.5 0L0 0Z" fill="#e9705a"></path><path d="M0 -45C4.4 -43.9 8.8 -42.7 13.5 -41.6C18.2 -40.5 23.2 -39.4 26.5 -36.4C29.7 -33.4 31.1 -28.5 33.8 -24.5C36.4 -20.6 40.3 -17.7 42.3 -13.8C44.4 -9.8 44.7 -4.9 45 0L0 0Z" fill="#fa9845"></path><path d="M0 -22.5C2.2 -21.9 4.4 -21.4 6.8 -20.8C9.1 -20.2 11.6 -19.7 13.2 -18.2C14.8 -16.7 15.6 -14.2 16.9 -12.3C18.2 -10.3 20.1 -8.8 21.2 -6.9C22.2 -4.9 22.3 -2.5 22.5 0L0 0Z" fill="#fbae3c"></path></g></svg>