<?xml version="1.0" encoding="UTF-8"?>
<svg width="752pt" height="752pt" version="1.1" viewBox="0 0 752 752" xmlns="http://www.w3.org/2000/svg">
 <g>
  <path d="m491.57 174.71c47.27 0 85.723 38.453 85.723 85.723v231.14c0 47.27-38.453 85.723-85.723 85.723h-231.14c-47.27 0-85.723-38.453-85.723-85.723v-231.14c0-47.27 38.453-85.723 85.723-85.723h231.14m0-8.7383h-231.14c-52.172 0-94.461 42.289-94.461 94.461v231.14c0 52.168 42.289 94.461 94.461 94.461h231.14c52.168 0 94.461-42.289 94.461-94.461v-231.14c0-52.172-42.293-94.461-94.461-94.461z"/>
  <path d="m588.68 163.37 0.92578 0.92969-426.25 424.33-0.92578-0.92969z"/>
  <path d="m163.82 162.89 425.29 425.29-0.92578 0.92578-425.29-425.29z"/>
  <path d="m170.37 452.77h411.26v1.3125h-411.26z"/>
  <path d="m170.37 375.35h411.26v1.3086h-411.26z"/>
  <path d="m170.37 297.92h411.26v1.3086h-411.26z"/>
  <path d="m452.77 170.37h1.3125v411.26h-1.3125z"/>
  <path d="m375.34 170.37h1.3125v411.26h-1.3125z"/>
  <path d="m297.92 170.37h1.3125v411.26h-1.3125z"/>
  <path d="m557.46 166.35h1.3125v419.3h-1.3125z"/>
  <path d="m193.23 166.35h1.3125v419.3h-1.3125z"/>
  <path d="m166.35 193.23h419.3v1.3086h-419.3z"/>
  <path d="m166.35 557.46h419.3v1.3125h-419.3z"/>
  <path d="m376 558.55c-100.66 0-182.55-81.895-182.55-182.55 0-100.65 81.891-182.55 182.55-182.55s182.55 81.891 182.55 182.55-81.891 182.55-182.55 182.55zm0-363.79c-99.941 0-181.24 81.305-181.24 181.24 0 99.941 81.305 181.24 181.24 181.24 99.938 0 181.24-81.293 181.24-181.23 0-99.938-81.301-181.24-181.24-181.24z"/>
  <path d="m376 486.41c-60.879 0-110.41-49.531-110.41-110.41 0-60.883 49.531-110.41 110.41-110.41 60.887 0 110.41 49.527 110.41 110.41 0 60.887-49.531 110.41-110.41 110.41zm0-219.51c-60.16 0-109.11 48.945-109.11 109.11s48.941 109.11 109.11 109.11c60.164-0.003906 109.1-48.949 109.1-109.11 0-60.156-48.941-109.1-109.1-109.1z"/>
  <path d="m376 454.08c-43.055 0-78.086-35.027-78.086-78.086 0.003907-43.059 35.035-78.074 78.086-78.074 43.055 0 78.082 35.027 78.082 78.078 0 43.055-35.027 78.082-78.082 78.082zm0-154.85c-42.332 0-76.766 34.438-76.766 76.773 0 42.332 34.434 76.766 76.766 76.766 42.336 0 76.77-34.434 76.77-76.77 0-42.332-34.434-76.77-76.77-76.77z"/>
 </g>
</svg>
