<svg width="159" height="45" viewBox="0 0 159 45" fill="none" xmlns="http://www.w3.org/2000/svg">
<rect x="0.75" y="1.70923" width="157.5" height="42.4911" rx="21.2456" fill="white" stroke="black" stroke-width="1.5"/>
<path d="M64.614 16.9463C61.674 16.9043 59.616 19.2143 59.658 22.0703C59.616 24.9683 61.688 27.2083 64.46 27.1663C65.902 27.1663 66.994 26.5923 67.666 25.6403V26.9563H69.038V22.5743H64.824V23.9883H67.484C67.022 25.0383 65.958 25.6823 64.726 25.6823C62.626 25.6823 61.198 24.1563 61.198 21.9723C61.198 20.0123 62.556 18.4303 64.6 18.4303C66.098 18.4303 67.134 19.3123 67.372 20.6703L68.856 20.1943C68.492 18.2623 66.84 16.9463 64.614 16.9463ZM73.4828 19.9703C71.4248 19.9703 69.9548 21.5523 69.9548 23.5823C69.9548 25.6123 71.4108 27.1663 73.4828 27.1663C75.5688 27.1663 76.9968 25.6123 76.9968 23.5823C76.9968 21.5523 75.5548 19.9703 73.4828 19.9703ZM73.4828 25.6823C72.9088 25.6823 72.4328 25.4863 72.0548 25.0943C71.6768 24.6883 71.4948 24.1843 71.4948 23.5823C71.4948 22.9663 71.6768 22.4623 72.0548 22.0563C72.4328 21.6503 72.9088 21.4543 73.4828 21.4543C74.0568 21.4543 74.5188 21.6643 74.8968 22.0703C75.2748 22.4763 75.4568 22.9803 75.4568 23.5823C75.4568 24.1843 75.2748 24.6883 74.8968 25.0943C74.5188 25.4863 74.0568 25.6823 73.4828 25.6823ZM81.1188 19.9703C79.0608 19.9703 77.5908 21.5523 77.5908 23.5823C77.5908 25.6123 79.0468 27.1663 81.1188 27.1663C83.2048 27.1663 84.6328 25.6123 84.6328 23.5823C84.6328 21.5523 83.1908 19.9703 81.1188 19.9703ZM81.1188 25.6823C80.5448 25.6823 80.0688 25.4863 79.6908 25.0943C79.3128 24.6883 79.1308 24.1843 79.1308 23.5823C79.1308 22.9663 79.3128 22.4623 79.6908 22.0563C80.0688 21.6503 80.5448 21.4543 81.1188 21.4543C81.6928 21.4543 82.1548 21.6643 82.5328 22.0703C82.9108 22.4763 83.0928 22.9803 83.0928 23.5823C83.0928 24.1843 82.9108 24.6883 82.5328 25.0943C82.1548 25.4863 81.6928 25.6823 81.1188 25.6823ZM88.3628 20.0123C86.5428 20.0123 85.2268 21.5383 85.2268 23.4003C85.2268 25.2903 86.5568 26.7463 88.3908 26.7463C89.2448 26.7463 89.9168 26.4383 90.4348 25.8223V26.8023C90.4348 28.1463 89.6648 28.9583 88.5028 28.9583C87.4248 28.9583 86.7528 28.2303 86.7668 27.1803L85.2688 27.3903C85.2408 29.1403 86.5988 30.3163 88.4748 30.3163C90.5328 30.3163 91.9748 28.8323 91.9748 26.7323V20.1803H90.4348V20.9643C89.9308 20.3623 89.2168 20.0123 88.3628 20.0123ZM88.6008 25.3183C87.4948 25.3183 86.7668 24.5203 86.7668 23.4003C86.7668 22.2803 87.5228 21.4823 88.6008 21.4823C89.6648 21.4823 90.4348 22.2803 90.4348 23.4003C90.4348 24.5203 89.6648 25.3183 88.6008 25.3183ZM93.2675 26.9563H94.8075V17.1563H93.2675V26.9563ZM99.101 19.9703C97.099 19.9703 95.741 21.5523 95.741 23.5823C95.741 25.6263 97.113 27.1663 99.171 27.1663C100.767 27.1663 102.111 26.1303 102.335 24.6603L100.907 24.3943C100.781 25.2343 100.081 25.7943 99.199 25.7943C98.121 25.7943 97.351 25.0943 97.183 23.9323H102.153V23.2183C102.153 21.3143 100.935 19.9703 99.101 19.9703ZM97.253 22.7283C97.491 21.8743 98.191 21.3003 99.101 21.3003C100.053 21.3003 100.725 21.9303 100.767 22.7283H97.253ZM106.471 26.9563H108.011V23.0503H110.755C112.659 23.0503 113.807 21.8323 113.807 20.0963C113.807 18.3883 112.645 17.1563 110.755 17.1563H106.471V26.9563ZM108.011 21.5663V18.6403H110.657C111.679 18.6403 112.267 19.1863 112.267 20.0963C112.267 21.0343 111.707 21.5663 110.657 21.5663H108.011ZM114.679 26.9563H116.219V17.1563H114.679V26.9563ZM119.854 22.8403C118.132 23.1203 117.278 23.8483 117.278 25.1503C117.278 26.1583 118.048 27.1663 119.588 27.1663C120.442 27.1663 121.1 26.7463 121.422 26.1723V26.9563H122.864V22.4063C122.864 20.9083 121.856 19.9703 120.05 19.9703C118.51 19.9703 117.208 20.9083 117.292 22.6023L118.734 22.7143C118.664 21.8323 119.154 21.2723 120.092 21.2723C120.932 21.2723 121.422 21.7203 121.422 22.3223V22.5743L119.854 22.8403ZM119.882 25.7803C119.196 25.7803 118.734 25.4583 118.734 24.9683C118.734 24.4083 119.238 24.1563 120.078 24.0023L121.422 23.7783V24.1003C121.422 25.1083 120.792 25.7803 119.882 25.7803ZM123.72 27.4323C123.636 29.1683 124.952 30.3163 126.8 30.3163C128.83 30.3163 130.216 28.8323 130.216 26.8163V20.1803H128.676V23.4983C128.676 24.7163 128.032 25.4583 127.066 25.4583C126.156 25.4583 125.694 24.9403 125.694 23.9043V20.1803H124.154L124.182 24.1983C124.182 25.8363 125.078 26.8443 126.576 26.8443C127.458 26.8443 128.158 26.5223 128.676 25.8923V26.8723C128.676 28.1463 127.92 28.9443 126.8 28.9443C125.806 28.9443 125.12 28.3143 125.176 27.2363L123.72 27.4323Z" fill="black"/>
<g clip-path="url(#clip0)">
<path d="M32.1472 14.5459C32.0736 14.7666 32 14.9874 32 15.2817V31.5425C32 31.8368 32.0736 32.0575 32.1472 32.2783L40.9784 23.3753L32.1472 14.5459Z" fill="black"/>
<path d="M41.4933 22.86L44.2162 20.0641L33.8396 14.1778C33.398 13.9571 32.9565 13.8835 32.6621 14.0307L41.4933 22.86Z" fill="black"/>
<path d="M41.4933 23.8901L32.6621 32.7931C32.9565 32.9403 33.398 32.8667 33.8396 32.6459L44.2898 26.7597L41.4933 23.8901Z" fill="black"/>
<path d="M48.1916 22.3449L44.8799 20.4319L42.0098 23.375L44.9535 26.3181L48.1916 24.4787C49.2219 23.8901 49.2219 22.9335 48.1916 22.3449Z" fill="black"/>
</g>
<defs>
<clipPath id="clip0">
<rect width="17" height="18.9096" fill="white" transform="translate(32 13.9565)"/>
</clipPath>
</defs>
</svg>
