<?xml version="1.0" encoding="UTF-8"?>
<svg width="46px" height="55px" viewBox="0 0 46 55" version="1.1" xmlns="http://www.w3.org/2000/svg" xmlns:xlink="http://www.w3.org/1999/xlink">
    <title>design-tool-pen-station copy 3</title>
    <g id="Page-1" stroke="none" stroke-width="1" fill="none" fill-rule="evenodd">
        <g id="Desktop-HD---March-2021" transform="translate(-237.000000, -4662.000000)" fill="#58119D">
            <g id="Service-1" transform="translate(120.000000, 4581.000000)">
                <g id="Group" transform="translate(112.155524, 79.169670)">
                    <g id="design-tool-pen-station-copy-3" transform="translate(29.000000, 29.000000) rotate(-20.000000) translate(-29.000000, -29.000000) ">
                        <path d="M30.0069444,4.63194433 C31.2304086,4.63194433 32.2222222,5.62375798 32.2222222,6.84722211 L32.2222222,6.84722211 L32.221667,24.7699443 L32.317667,24.7699443 L36.7307274,16.8417805 C36.4472497,16.5315375 36.2082556,16.1792191 36.0236699,15.7941981 L35.9298379,15.584361 C35.4578982,14.4490393 35.4913685,13.1665301 35.9969898,12.1129759 C36.1651164,11.7105197 36.2267865,11.5730343 36.5950916,11.0845047 L36.5950916,11.0845047 L37.5410596,9.86020202 C38.5017083,8.55909826 38.6036664,7.82687205 37.8195856,6.63215446 C37.2184275,5.71615949 38.0488732,4.53714925 39.1138197,4.794689 C43.174725,5.77675196 45.4085564,9.31807711 45.1238597,13.1262376 C44.915865,15.9084168 43.3761064,17.9873358 41.2211374,18.3728815 L38.7613035,24.8833056 C39.6423461,25.1759472 40.2777778,26.0068226 40.2777778,26.9861111 L40.2777778,26.9861111 L40.277667,28.7979443 L41.0833334,28.7986111 C45.0873978,28.7986111 48.3333334,32.0445467 48.3333334,36.0486111 C48.3333334,39.9096733 45.3151102,43.0657916 41.509326,43.2863038 L41.0833334,43.2986111 L40.277667,43.2979443 L40.2777778,48.1319445 C40.2777778,50.9514733 38.0492402,53.2504991 35.2574988,53.3636882 L35.0416667,53.3680557 L16.9166666,53.3680557 C14.0248423,53.3680557 11.6805555,51.0237689 11.6805555,48.1319445 L11.6805555,48.1319445 L11.6805555,26.9861111 C11.6805555,26.0680346 12.2390325,25.2803975 13.0347909,24.9443952 L10.8011782,20.477883 C10.7456086,20.365727 10.7103165,20.2554698 10.6910429,20.1435146 L10.6900517,20.1361487 L9.68310725,14.094482 C9.51367653,13.0778977 10.6129442,12.3294531 11.4966823,12.859696 L11.4966823,12.859696 L16.5314045,15.8805293 C16.5410988,15.8863459 16.5507024,15.892293 16.5602129,15.8983683 C16.5803323,15.9108063 16.6006921,15.9246803 16.6206732,15.9392239 C16.6367685,15.951341 16.6522196,15.9631751 16.6673653,15.9753658 C16.6833699,15.9878836 16.6993251,16.0014313 16.7149747,16.0154444 C16.729759,16.0289723 16.7441861,16.0425208 16.7582701,16.0564132 C16.7761029,16.0738006 16.793765,16.0923843 16.8109213,16.1116337 C16.8240988,16.1264876 16.8370225,16.1416941 16.8495683,16.1572198 C16.858776,16.1686106 16.8676671,16.1800376 16.8763888,16.1916666 L16.8838222,16.2016843 C16.9137865,16.2425079 16.9412473,16.2853012 16.9659955,16.3298481 L16.938667,16.2869443 L16.9514164,16.3041288 C16.9525779,16.3060985 16.9537332,16.3080704 16.9548823,16.3100446 L16.9659955,16.3298481 L21.654667,24.7699443 L21.749667,24.7699443 L21.75,6.84722211 C21.75,5.67695207 22.6574438,4.7186269 23.8070717,4.6375065 L23.9652778,4.63194433 Z M14.8685279,27.1870168 L14.0964167,27.1850833 L14.0972221,48.1319445 C14.0972221,49.5852716 15.1968329,50.7817709 16.6094571,50.9348449 L16.6094571,50.9348449 L16.9166666,50.951389 L35.0416667,50.951389 C36.5988029,50.951389 37.8611112,49.6890807 37.8611112,48.1319445 L37.8611112,48.1319445 L37.8595,27.1850833 L37.1334075,27.1852862 C37.0880885,27.1882387 37.0424042,27.1886356 36.996558,27.186385 L33.0812677,27.1864842 C33.051051,27.1878517 33.0207308,27.1880873 32.9903719,27.1871724 L31.054667,27.1849443 L31.0138889,27.1875 L22.9583333,27.1875 C22.9444303,27.1875 22.9305821,27.1872652 22.9167926,27.1867993 L20.990667,27.1849443 L20.9444444,27.1874999 L14.9027777,27.1874999 C14.8913356,27.1874999 14.8799181,27.1873383 14.8685279,27.1870168 Z M41.0833334,31.2152778 L40.277667,31.2149443 L40.277667,40.8819443 L41.0833334,40.8819444 C43.7527097,40.8819444 45.9166668,38.7179874 45.9166668,36.0486111 C45.9166668,33.5005701 43.9449621,31.4130454 41.4440507,31.228535 L41.0833334,31.2152778 Z M38.620667,18.4159443 L35.082667,24.7699443 L36.219667,24.7699443 L38.620667,18.4159443 Z M15.526667,18.7139443 L13.412667,20.2999443 L15.6455,24.7684167 L18.8886667,24.7684167 L15.526667,18.7139443 Z M29.80475,7.047 L24.16425,7.047 L24.16425,24.7684167 L29.80475,24.7684167 L29.804667,23.1589443 L29,23.1597222 C28.3326559,23.1597222 27.7916667,22.6187329 27.7916667,21.9513889 C27.7916667,21.3581941 28.219115,20.8648353 28.7828006,20.7625234 L29,20.7430555 L29.804667,20.7429443 L29.804667,19.1319443 L26.9861111,19.1319444 C26.318767,19.1319444 25.7777778,18.5909551 25.7777778,17.9236111 C25.7777778,17.3304163 26.2052261,16.8370575 26.7689117,16.7347456 L26.9861111,16.7152777 L29.804667,16.7149443 L29.804667,15.1039443 L29,15.1041666 C28.3326559,15.1041666 27.7916667,14.5631773 27.7916667,13.8958333 C27.7916667,13.3026385 28.219115,12.8092797 28.7828006,12.7069678 L29,12.6874999 L29.804667,12.6869443 L29.804667,11.0759443 L26.9861111,11.0763888 C26.318767,11.0763888 25.7777778,10.5353995 25.7777778,9.86805546 C25.7777778,9.27486073 26.2052261,8.7815019 26.7689117,8.67918999 L26.9861111,8.65972213 L29.804667,8.65894433 L29.80475,7.047 Z M12.4965833,16.27625 L12.745667,17.7779443 L13.747667,17.0269443 L12.4965833,16.27625 Z M40.78125,8.22875 L40.7560029,8.53140174 C40.622576,9.54795396 40.0782427,10.5486253 39.2065705,11.6613397 C38.384892,12.7102357 38.3418467,12.7693662 38.2020052,13.1001298 L38.2020052,13.1001298 L38.1032338,13.3506092 C37.9691394,13.7765175 37.9878098,14.2391817 38.1613817,14.6567348 C38.2894496,14.9648213 38.4944061,15.2304502 38.7688249,15.4373975 C38.8039001,15.4495944 38.8370458,15.4661016 38.8697121,15.4842851 C38.9409355,15.5239314 39.0065859,15.5697133 39.0663707,15.620603 C39.158313,15.6721606 39.2585427,15.7156922 39.364425,15.7532193 C41.1824367,16.5211725 42.5357178,15.329716 42.7139182,12.9460713 C42.8446241,11.1977236 42.2437867,9.56076227 41.0275663,8.44052304 L41.0275663,8.44052304 L40.78125,8.22875 Z" id="Combined-Shape"></path>
                    </g>
                </g>
            </g>
        </g>
    </g>
</svg>