<?xml version="1.0" encoding="UTF-8"?>
<svg width="56px" height="49px" viewBox="0 0 56 49" version="1.1" xmlns="http://www.w3.org/2000/svg" xmlns:xlink="http://www.w3.org/1999/xlink">
    <title>design-tool-pen-station copy 3</title>
    <g id="Page-1" stroke="none" stroke-width="1" fill="none" fill-rule="evenodd">
        <g id="Desktop-HD---March-2021" transform="translate(-229.000000, -5476.000000)" fill="#58119D">
            <g id="Service-2-Copy" transform="translate(119.000000, 5395.000000)">
                <g id="Group" transform="translate(108.024450, 74.329178)">
                    <g id="design-tool-pen-station-copy-3" transform="translate(30.000000, 30.000000) rotate(10.000000) translate(-30.000000, -30.000000) ">
                        <path d="M24.7916666,15.2083333 C25.4053164,15.2083333 25.9156876,15.6505212 26.0215275,16.2336442 L26.0416666,16.4583333 L26.0416665,21.4576665 L33.125,21.4583333 C33.815356,21.4583333 34.375,22.0179774 34.375,22.7083333 C34.375,23.321983 33.9328121,23.8323542 33.3496891,23.9381941 L33.125,23.9583333 L14.3749999,23.9583333 C13.9722923,23.9583333 13.6363022,24.243985 13.5585969,24.6237209 L13.5416666,24.7916666 L13.5416666,45.6250001 C13.5416666,46.0277077 13.8273182,46.3636977 14.2070542,46.4414029 L14.3749999,46.4583333 L35.2083334,46.4583333 C35.611041,46.4583333 35.947031,46.1726817 36.0247362,45.7929458 L36.0416666,45.6250001 L36.0416666,31.0416667 C36.0416666,30.3513107 36.6013106,29.7916667 37.2916666,29.7916667 C37.9053163,29.7916667 38.4156875,30.2338546 38.5215274,30.8169776 L38.5416666,31.0416667 L38.5416665,33.9576665 L43.5416667,33.9583334 C44.2320226,33.9583334 44.7916667,34.5179774 44.7916667,35.2083334 C44.7916667,35.8219831 44.3494788,36.3323543 43.7663558,36.4381942 L43.5416667,36.4583334 L38.5416665,36.4576665 L38.5416665,42.2916665 L43.5416667,42.2916667 C44.2320226,42.2916667 44.7916667,42.8513108 44.7916667,43.5416667 C44.7916667,44.1553165 44.3494788,44.6656877 43.7663558,44.7715276 L43.5416667,44.7916667 L38.5416665,44.7916665 L38.5416666,45.6250001 C38.5416666,47.3576581 37.2196932,48.7815526 35.5293556,48.9430742 L35.2083334,48.9583333 L34.3746665,48.9576665 L34.375,53.9583334 C34.375,54.6486894 33.815356,55.2083334 33.125,55.2083334 C32.5113503,55.2083334 32.0009791,54.7661455 31.8951392,54.1830225 L31.875,53.9583334 L31.8746665,48.9576665 L26.0416665,48.9576665 L26.0416666,53.9583334 C26.0416666,54.6486894 25.4820226,55.2083334 24.7916666,55.2083334 C24.1780169,55.2083334 23.6676457,54.7661455 23.5618058,54.1830225 L23.5416666,53.9583334 L23.5416665,48.9576665 L17.7076665,48.9576665 L17.7083333,53.9583334 C17.7083333,54.6486894 17.1486892,55.2083334 16.4583333,55.2083334 C15.8446835,55.2083334 15.3343123,54.7661455 15.2284724,54.1830225 L15.2083333,53.9583334 L15.2076665,48.9576665 L14.3749999,48.9583333 C12.6423419,48.9583333 11.2184473,47.6363599 11.0569256,45.9460223 L11.0416666,45.6250001 L11.0416665,44.7916665 L6.04166655,44.7916667 C5.35131061,44.7916667 4.79166655,44.2320227 4.79166655,43.5416667 C4.79166655,42.928017 5.23385445,42.4176458 5.81697747,42.3118059 L6.04166655,42.2916667 L11.0416665,42.2916665 L11.0416665,36.4576665 L6.04166655,36.4583334 C5.35131061,36.4583334 4.79166655,35.8986893 4.79166655,35.2083334 C4.79166655,34.5946836 5.23385445,34.0843124 5.81697747,33.9784725 L6.04166655,33.9583334 L11.0416665,33.9576665 L11.0416665,28.1246665 L6.04166655,28.125 C5.35131061,28.125 4.79166655,27.5653559 4.79166655,26.875 C4.79166655,26.2613503 5.23385445,25.7509791 5.81697747,25.6451392 L6.04166655,25.625 L11.0416665,25.6246665 L11.0416666,24.7916666 C11.0416666,23.0590086 12.3636401,21.635114 14.0539777,21.4735924 L14.3749999,21.4583333 L15.2076665,21.4576665 L15.2083333,16.4583333 C15.2083333,15.7679773 15.7679773,15.2083333 16.4583333,15.2083333 C17.071983,15.2083333 17.5823542,15.6505212 17.6881941,16.2336442 L17.7083333,16.4583333 L17.7076665,21.4576665 L23.5416665,21.4576665 L23.5416666,16.4583333 C23.5416666,15.7679773 24.1013107,15.2083333 24.7916666,15.2083333 Z M28.125,25.625 C31.5767797,25.625 34.375,28.4232203 34.375,31.875 L34.375,31.875 L34.375,38.5416667 C34.375,41.9934464 31.5767797,44.7916667 28.125,44.7916667 L28.125,44.7916667 L21.4583333,44.7916667 C18.0065536,44.7916667 15.2083333,41.9934464 15.2083333,38.5416667 L15.2083333,38.5416667 L15.2083333,31.875 C15.2083333,28.4232203 18.0065536,25.625 21.4583333,25.625 L21.4583333,25.625 Z M28.125,28.125 L21.4583333,28.125 C19.3872655,28.125 17.7083333,29.8039322 17.7083333,31.875 L17.7083333,31.875 L17.7083333,38.5416667 C17.7083333,40.6127345 19.3872655,42.2916667 21.4583333,42.2916667 L21.4583333,42.2916667 L28.125,42.2916667 C30.1960678,42.2916667 31.875,40.6127345 31.875,38.5416667 L31.875,38.5416667 L31.875,31.875 C31.875,29.8039322 30.1960678,28.125 28.125,28.125 L28.125,28.125 Z M52.9166668,4.79166655 C54.0040019,4.79166655 54.5728699,6.08396336 53.8385303,6.88586304 L53.8385303,6.88586304 L48.125,13.1225 L53.9583335,13.1249999 C55.0414741,13.1249999 55.578948,14.3827295 54.9294113,15.1644718 L54.9294113,15.1644718 L54.7718227,15.3240707 L40.1884893,27.8240707 C39.1825588,28.6862968 37.702534,27.5965865 38.2271849,26.3800047 L38.2271849,26.3800047 L41.0675,19.79 L37.2916667,19.7916665 C36.4740248,19.7916665 35.8975706,19.0291904 36.0714215,18.2679145 L36.0714215,18.2679145 L36.1378206,18.0608973 L41.3461539,5.56089731 C41.5402409,5.09508864 41.995374,4.79166655 42.5000001,4.79166655 L42.5000001,4.79166655 Z M50.075,7.29 L43.3325,7.29 L39.165,17.29 L42.9687501,17.2916665 C43.798236,17.2916665 44.3775894,18.0754398 44.18193,18.8450233 L44.18193,18.8450233 L44.1165652,19.0366618 L42.66,22.41 L50.58,15.6225 L45.2854167,15.6249999 C44.2705706,15.6249999 43.707367,14.4992658 44.2338289,13.6971938 L44.2338289,13.6971938 L44.3635533,13.5308034 L50.075,7.29 Z" id="Combined-Shape"></path>
                    </g>
                </g>
            </g>
        </g>
    </g>
</svg>