<?xml version="1.0" encoding="UTF-8"?>
<svg width="50px" height="47px" viewBox="0 0 50 47" version="1.1" xmlns="http://www.w3.org/2000/svg" xmlns:xlink="http://www.w3.org/1999/xlink">
    <title>design-tool-pen-station copy 9</title>
    <g id="Page-1" stroke="none" stroke-width="1" fill="none" fill-rule="evenodd">
        <g id="Desktop-HD---March-2021" transform="translate(-232.000000, -5910.000000)" fill="#58119D">
            <g id="Service-2-Copy-2" transform="translate(120.000000, 5827.000000)">
                <g id="Group" transform="translate(111.921151, 81.741032)">
                    <g id="design-tool-pen-station-copy-9" transform="translate(25.000000, 25.000000) rotate(20.000000) translate(-25.000000, -25.000000) ">
                        <path d="M40.6250001,6.59722214 C43.4830442,6.59722214 45.8207598,8.82501301 45.9963562,11.638804 L46.0069445,11.9791666 L46.0069445,31.9444445 C46.0069445,32.0204534 45.9988036,32.0945608 45.983346,32.1659425 C45.998037,32.3215264 46.0052084,32.4793702 46.0052084,32.6388889 L46.0052084,32.6388889 L46.0052084,38.1944445 C46.0052084,41.0709276 43.6733581,43.4027779 40.796875,43.4027779 L40.796875,43.4027779 L33.5052084,43.4027779 C30.6287253,43.4027779 28.296875,41.0709276 28.296875,38.1944445 L28.296875,38.1944445 L28.2963193,33.6052221 L28.2933894,33.4933732 C28.1963501,31.7586881 26.7589529,30.3819445 25,30.3819445 C23.1782274,30.3819445 21.7013889,31.858783 21.7013889,33.6805556 L21.6993193,33.7122221 L21.6996527,38.1944445 C21.6996527,40.9971716 19.4858514,43.2828377 16.7114829,43.3982087 L16.4913193,43.4027779 L9.19965268,43.4027779 C6.32316961,43.4027779 3.99131934,41.0709276 3.99131934,38.1944445 L3.99131934,38.1944445 L3.99131934,32.6388889 C3.99131934,32.4749105 3.99889727,32.312702 4.01372203,32.1525945 C4.01250129,32.1459323 4.01113334,32.1388215 4.0098381,32.1316854 L3.99305546,31.9444445 L3.99305546,11.9791666 C3.99305546,9.00680075 6.40263407,6.59722214 9.37499992,6.59722214 C9.95029654,6.59722214 10.4166666,7.06359219 10.4166666,7.6388888 C10.4166666,8.21418542 9.95029654,8.68055547 9.37499992,8.68055547 C7.65443689,8.68055547 6.24154657,9.99785895 6.08986913,11.6789258 L6.07638879,11.9791666 L6.07655171,28.470415 C6.94670585,27.8174349 8.02799901,27.4305556 9.19965268,27.4305556 L9.19965268,27.4305556 L16.4913193,27.4305556 C18.4301643,27.4305556 20.1215713,28.4899634 21.0182457,30.0614844 C22.0012455,28.9783946 23.4212368,28.2986111 25,28.2986111 C26.5772937,28.2986111 27.9961109,28.9771296 28.9804899,30.058205 C29.8770894,28.4886279 31.5675859,27.4305556 33.5052084,27.4305556 L33.5052084,27.4305556 L40.796875,27.4305556 C41.9703059,27.4305556 43.053102,27.8186095 43.9239343,28.4733884 L43.9236112,11.9791666 C43.9236112,10.157394 42.4467727,8.68055547 40.6250001,8.68055547 C40.0497035,8.68055547 39.5833334,8.21418542 39.5833334,7.6388888 C39.5833334,7.06359219 40.0497035,6.59722214 40.6250001,6.59722214 Z M16.4913193,29.5138889 L9.19965268,29.5138889 C7.47376283,29.5138889 6.07465268,30.9129991 6.07465268,32.6388889 L6.07465268,32.6388889 L6.07465268,38.1944445 C6.07465268,39.9203344 7.47376283,41.3194445 9.19965268,41.3194445 L9.19965268,41.3194445 L16.4913193,41.3194445 C18.2172092,41.3194445 19.6163193,39.9203344 19.6163193,38.1944445 L19.6163193,38.1944445 L19.6163193,32.6388889 C19.6163193,30.9129991 18.2172092,29.5138889 16.4913193,29.5138889 L16.4913193,29.5138889 Z M40.796875,29.5138889 L33.5052084,29.5138889 C31.7793185,29.5138889 30.3802084,30.9129991 30.3802084,32.6388889 L30.3802084,32.6388889 L30.3808826,33.5725637 C30.3815894,33.6084759 30.3819445,33.6444743 30.3819445,33.6805556 L30.3793193,33.7182221 L30.3802084,38.1944445 C30.3802084,39.8608209 31.6844918,41.2225656 33.3278777,41.3144976 L33.5052084,41.3194445 L40.796875,41.3194445 C42.5227649,41.3194445 43.921875,39.9203344 43.921875,38.1944445 L43.921875,38.1944445 L43.921875,32.6388889 C43.921875,30.9129991 42.5227649,29.5138889 40.796875,29.5138889 L40.796875,29.5138889 Z" id="Combined-Shape"></path>
                    </g>
                </g>
            </g>
        </g>
    </g>
</svg>