<?xml version="1.0" encoding="UTF-8"?>
<svg width="40px" height="51px" viewBox="0 0 40 51" version="1.1" xmlns="http://www.w3.org/2000/svg" xmlns:xlink="http://www.w3.org/1999/xlink">
    <title>design-tool-pen-station copy 3</title>
    <g id="Page-1" stroke="none" stroke-width="1" fill="none" fill-rule="evenodd">
        <g id="Desktop-HD---March-2021" transform="translate(-236.000000, -5070.000000)" fill="#58119D">
            <g id="Service-2" transform="translate(120.000000, 4987.000000)">
                <g id="Group" transform="translate(112.596277, 78.887957)">
                    <g id="design-tool-pen-station-copy-3" transform="translate(28.000000, 28.000000) rotate(-20.000000) translate(-28.000000, -28.000000) ">
                        <path d="M31.8888889,4.47222211 C32.5332211,4.47222211 33.0555556,4.99455657 33.0555556,5.63888878 C33.0555556,6.21162852 32.6428469,6.68797497 32.0985987,6.78675888 L31.8888889,6.80555544 L14.3888888,6.80555544 C12.9856764,6.80555544 11.8304358,7.8672486 11.6826402,9.23116158 L11.6666666,9.52777769 L11.6663332,12.2492221 L27.0277778,12.2499999 C27.67211,12.2499999 28.1944444,12.7723344 28.1944444,13.4166666 C28.1944444,13.9894063 27.7817357,14.4657528 27.2374876,14.5645367 L27.0277778,14.5833333 L11.6663332,14.5832221 L11.6663332,41.4162221 L34.6103332,41.4162221 L34.6111111,35.7777778 C34.6111111,35.1334456 35.1334456,34.6111111 35.7777778,34.6111111 C36.3505176,34.6111111 36.826864,35.0238199 36.9256479,35.568068 L36.9444445,35.7777778 L36.9444445,46.4722221 C36.9444445,49.1429326 34.8735381,51.3299569 32.249936,51.5150843 L31.8888889,51.5277779 L14.3888888,51.5277779 C11.7181785,51.5277779 9.53115427,49.4568715 9.34602686,46.8332693 L9.33333325,46.4722221 L9.33333325,9.52777769 C9.33333325,6.85706736 11.4042396,4.67004314 14.0278417,4.48491573 L14.3888888,4.47222211 L31.8888889,4.47222211 Z M34.6103332,43.7492221 L11.6663332,43.7492221 L11.6666666,46.4722221 C11.6666666,47.8754347 12.7283597,49.0306753 14.0922727,49.1784709 L14.3888888,49.1944446 L31.8888889,49.1944446 C33.2921013,49.1944446 34.4473419,48.1327514 34.5951375,46.7688382 L34.6111111,46.4722221 L34.6103332,43.7492221 Z M23.1388889,44.8194445 L23.363161,44.8345324 C24.1698831,44.9439737 24.7916666,45.6354853 24.7916666,46.4722223 C24.7916666,47.3850263 24.0516928,48.1250001 23.1388889,48.1250001 C22.2260849,48.1250001 21.4861111,47.3850263 21.4861111,46.4722223 C21.4861111,45.6354853 22.1078946,44.9439737 22.9146167,44.8345324 L23.1388889,44.8194445 Z M22.9629166,28.6172863 C24.178591,28.6172863 25.3254705,29.1813061 26.0676342,30.1441442 L25.9783332,30.0342221 L26.1325775,30.1668205 C26.7789539,30.7679687 27.2019706,31.5686991 27.3364768,32.4365343 L27.3659583,32.6747808 L27.3827137,33.0370834 C27.3827137,34.2527577 26.8186939,35.3996372 25.8487398,36.1472425 C23.936197,37.5981731 21.5135702,38.2040323 19.1431818,37.8241925 C18.6456571,37.7444673 18.2555327,37.3543429 18.1758075,36.8568182 C17.7959677,34.4864298 18.4018269,32.063803 19.8581991,30.1441442 C20.6003628,29.1813061 21.7472423,28.6172863 22.9629166,28.6172863 Z M22.9629166,30.9506197 C22.470858,30.9506197 22.0066448,31.1789134 21.7116869,31.5615176 C20.8395884,32.7110734 20.3830771,34.111477 20.3987364,35.5364706 L20.3987364,35.5364706 L20.4003333,35.5973333 L20.4634866,35.6012964 C21.7299765,35.6153465 22.976353,35.2568469 24.0409705,34.5676312 L24.0409705,34.5676312 L24.4313664,34.2937547 C24.8210866,33.9933552 25.0493803,33.529142 25.0493803,33.0370834 C25.0493803,32.5450247 24.8210866,32.0808116 24.4313664,31.780412 L24.4313664,31.780412 L24.219588,31.5686336 C23.9191884,31.1789134 23.4549753,30.9506197 22.9629166,30.9506197 Z M46.324958,9.675042 C46.7299462,10.0800302 46.7749448,10.7086871 46.4599541,11.1633794 L46.324958,11.3249578 L45.2253332,12.4242221 L45.3976467,13.4318772 L45.6540069,14.9940239 C45.7446065,15.5626411 45.8177797,16.0463944 45.8712299,16.4387176 L45.8712299,16.4387176 L45.9363259,16.9578088 C46.1070938,19.2886511 45.1313262,21.5564874 43.2114572,23.1148104 L43.2114572,23.1148104 L36.1212192,27.64466 C36.7156378,29.3378993 36.3663906,31.228801 35.1960705,32.5992057 L34.9246802,32.8927357 L32.9937585,34.8236574 C32.4501417,35.3671577 31.6566811,35.5771415 30.9153871,35.3736837 C30.2667549,35.1956582 29.7453639,34.7250524 29.4975654,34.110036 L29.4085432,33.8380481 L28.6753332,30.9482221 L25.0413332,27.3202221 L22.1602315,26.5910193 C21.4153774,26.4010082 20.8297741,25.8259068 20.6263163,25.0846129 C20.4482907,24.4359806 20.5868063,23.7474083 20.9883789,23.2211602 L21.1764309,23.0061532 L23.1071369,21.0754472 C24.4916599,19.6904968 26.5363658,19.2409358 28.3600835,19.8813048 L32.9648603,12.6785287 C34.4435126,10.8686738 36.7113489,9.89290619 39.0421912,10.0636741 L39.0421912,10.0636741 L39.8809914,10.1733022 L41.4482483,10.4171744 L43.5743332,10.7752221 L44.6750422,9.675042 C45.1306538,9.21943033 45.8693463,9.21943033 46.324958,9.675042 Z M34.0513724,28.9679069 L31.0633332,30.8752221 L31.584,32.9326667 L33.2748917,31.2426925 C33.884118,30.6336543 34.1571994,29.7873703 34.0513724,28.9679069 Z M29.0293332,23.1602221 L27.1413333,26.117 L29.8853333,28.8586667 L32.8413332,26.9722221 L29.0293332,23.1602221 Z M38.472,12.376 L38.0916607,12.3961384 C36.8062946,12.5075579 35.6163877,13.118953 34.8516494,14.0445206 L34.8516494,14.0445206 L30.3153332,21.1462221 L34.8553332,25.6862221 L41.8451955,21.2281936 C42.8985771,20.3675803 43.5331305,19.1106865 43.6161894,17.8011052 L43.6252678,17.5550251 L43.6134222,17.1734607 C43.5859089,16.9288566 43.535533,16.5665297 43.4661643,16.1085123 L43.4661643,16.1085123 L42.9636667,13.034 L40.3496265,12.6044176 L38.9152197,12.3931424 L38.472,12.376 Z M24.9901866,22.5173599 L24.7571801,22.7252357 L23.0673333,24.4113333 L25.1283332,24.9352221 L27.0372681,21.9505444 C26.3141517,21.8556137 25.572872,22.0545948 24.9901866,22.5173599 Z M38.3386112,14.2838888 C40.2039529,14.2838888 41.7161112,15.7960471 41.7161112,17.6613888 C41.7161112,19.5267306 40.2039529,21.0388888 38.3386112,21.0388888 C36.4732694,21.0388888 34.9611112,19.5267306 34.9611112,17.6613888 C34.9611112,15.7960471 36.4732694,14.2838888 38.3386112,14.2838888 Z M38.3386112,16.6172222 C37.7619338,16.6172222 37.2944445,17.0847115 37.2944445,17.6613888 C37.2944445,18.2380662 37.7619338,18.7055555 38.3386112,18.7055555 C38.9152885,18.7055555 39.3827778,18.2380662 39.3827778,17.6613888 C39.3827778,17.0847115 38.9152885,16.6172222 38.3386112,16.6172222 Z M27.0277778,8.36111102 C27.67211,8.36111102 28.1944444,8.88344548 28.1944444,9.52777769 C28.1944444,10.1005174 27.7817357,10.5768639 27.2374876,10.6756478 L27.0277778,10.6944444 L20.2222222,10.6944444 C19.57789,10.6944444 19.0555555,10.1721099 19.0555555,9.52777769 C19.0555555,8.95503794 19.4682642,8.47869149 20.0125124,8.37990758 L20.2222222,8.36111102 L27.0277778,8.36111102 Z" id="Combined-Shape"></path>
                    </g>
                </g>
            </g>
        </g>
    </g>
</svg>