<?xml version="1.0" encoding="UTF-8"?>
<svg width="752pt" height="752pt" version="1.1" viewBox="0 0 752 752" xmlns="http://www.w3.org/2000/svg">
 <g>
  <path d="m414.48 349.87v-87.457c0-19.246-15.871-54.793-38.484-54.793s-38.48 35.547-38.48 54.793v87.453l-75.605 72.93c-1.0273 0.99219-1.6094 2.3594-1.6094 3.7852v28.328c0 1.582 0.71484 3.082 1.9414 4.082 0.94531 0.76953 2.1211 1.1797 3.3203 1.1797 0.35938 0 0.71875-0.035157 1.0742-0.10938l70.879-14.766v9.6133c0 2.6367 1.9727 4.7305 4.5078 5.1094l-4.3281 16.152c-0.42578 1.582-0.085938 3.2695 0.90625 4.5664 0.99609 1.2969 2.5391 2.0586 4.1758 2.0586h3.2695c-0.85156 2.8633-1.293 5.8516-1.293 8.8789 0 15.715 24.332 47.168 27.105 50.703 0.99609 1.2695 2.5234 2.0117 4.1367 2.0117 1.6172 0 3.1406-0.74219 4.1406-2.0156 2.7734-3.5312 27.105-34.988 27.105-50.699 0-3.0273-0.4375-6.0156-1.293-8.8789h3.2695c1.6367 0 3.1797-0.76172 4.1758-2.0586 0.99609-1.2969 1.332-2.9844 0.90625-4.5664l-4.3281-16.152c2.5312-0.37891 4.5078-2.4727 4.5078-5.1094v-9.6133l70.879 14.766c0.35547 0.074218 0.71484 0.10938 1.0742 0.10938 1.1953 0 2.375-0.41016 3.3203-1.1797 1.2266-1 1.9414-2.5 1.9414-4.082v-28.328c0-1.4297-0.58203-2.7969-1.6094-3.7852zm-76.965 84.676-66.688 13.891v-19.621l66.688-64.324zm38.48 95.867c-9.3047-12.684-20.723-30.84-20.723-38.738 0-3.0898 0.6875-6.1133 2.0117-8.8789h0.58594c-0.058594 0.60156-0.12891 1.1992-0.12891 1.8086 0 8.3438 10.801 22.758 14.113 26.977 0.99609 1.2695 2.5234 2.0117 4.1406 2.0117s3.1406-0.74219 4.1406-2.0117c3.3125-4.2188 14.113-18.629 14.113-26.977 0-0.60937-0.070312-1.207-0.13281-1.8086h0.58984c1.3203 2.7695 2.0078 5.793 2.0078 8.8789 0.003906 7.8906-11.418 26.051-20.719 38.738zm-7.7266-45.809c0-0.61328 0.070312-1.2227 0.21484-1.8086h15.027c0.14453 0.58984 0.21484 1.1953 0.21484 1.8086 0 2.4219-3.5234 8.7344-7.7266 14.828-4.1641-6.0625-7.7305-12.445-7.7305-14.828zm29.504-12.336h-48.145l3.2422-12.098h46.242l3.2422 12.098zm6.1797-120.16v97.539h-0.80078l-54.312 0.003906h-0.79688l-0.003906-187.23c0-16.652 13.543-44.27 27.957-44.27 14.418 0 27.957 27.617 27.957 44.27zm77.215 96.332-66.691-13.891 0.003906-70.055 66.691 64.324z"/>
  <path d="m355.43 291.38c0 11.34 9.2266 20.566 20.566 20.566s20.566-9.2266 20.566-20.566c0-11.34-9.2266-20.566-20.566-20.566s-20.566 9.2266-20.566 20.566zm30.609 0c0 5.5391-4.5039 10.043-10.039 10.043-5.5391 0-10.043-4.5078-10.043-10.043 0-5.5352 4.5078-10.039 10.043-10.039 5.5352-0.003906 10.039 4.5039 10.039 10.039z"/>
  <path d="m376 388.79c-2.9062 0-5.2617 2.3555-5.2617 5.2617v29.262c0 2.9062 2.3555 5.2617 5.2617 5.2617s5.2617-2.3555 5.2617-5.2617l0.003906-29.262c0-2.9062-2.3594-5.2617-5.2656-5.2617z"/>
  <path d="m376 360.95c-2.9062 0-5.2617 2.3555-5.2617 5.2617v7.8164c0 2.9062 2.3555 5.2617 5.2617 5.2617s5.2617-2.3555 5.2617-5.2617v-7.8164c0.003906-2.9062-2.3555-5.2617-5.2617-5.2617z"/>
 </g>
</svg>
