<?xml version="1.0" encoding="UTF-8" standalone="no"?>
<svg
   xmlns:dc="http://purl.org/dc/elements/1.1/"
   xmlns:cc="http://creativecommons.org/ns#"
   xmlns:rdf="http://www.w3.org/1999/02/22-rdf-syntax-ns#"
   xmlns:svg="http://www.w3.org/2000/svg"
   xmlns="http://www.w3.org/2000/svg"
   xmlns:xlink="http://www.w3.org/1999/xlink"
   xmlns:sodipodi="http://sodipodi.sourceforge.net/DTD/sodipodi-0.dtd"
   xmlns:inkscape="http://www.inkscape.org/namespaces/inkscape"
   id="svg660443"
   viewBox="0 0 375.68118 61.510006"
   height="61.510006"
   width="375.68118"
   version="1.1"
   sodipodi:docname="fantastix_logo.svg"
   inkscape:version="0.92.4 (5da689c313, 2019-01-14)">
  <sodipodi:namedview
     pagecolor="#ffffff"
     bordercolor="#666666"
     borderopacity="1"
     objecttolerance="10"
     gridtolerance="10"
     guidetolerance="10"
     inkscape:pageopacity="0"
     inkscape:pageshadow="2"
     inkscape:window-width="1366"
     inkscape:window-height="715"
     id="namedview865"
     showgrid="false"
     inkscape:zoom="0.6328125"
     inkscape:cx="187.84342"
     inkscape:cy="-32.42911"
     inkscape:window-x="-8"
     inkscape:window-y="-8"
     inkscape:window-maximized="1"
     inkscape:current-layer="svg660443" />
  <metadata
     id="metadata660449">
    <rdf:rdf>
      <cc:work
         rdf:about="">
        <dc:format>image/svg+xml</dc:format>
        <dc:type
           rdf:resource="http://purl.org/dc/dcmitype/StillImage" />
      </cc:work>
    </rdf:rdf>
    <rdf:RDF>
      <cc:Work
         rdf:about="">
        <dc:format>image/svg+xml</dc:format>
        <dc:type
           rdf:resource="http://purl.org/dc/dcmitype/StillImage" />
        <dc:title></dc:title>
      </cc:Work>
    </rdf:RDF>
  </metadata>
  <defs
     id="defs660447" />
  <linearGradient
     spreadMethod="pad"
     y2="0.30000001"
     x2="-0.1"
     y1="1.2"
     x1="0.30000001"
     id="3d_gradient2-logo-cd3ba531-3541-4690-bc67-bca374baa329">
    <stop
       id="stop660424"
       stop-opacity="1"
       stop-color="#ffffff"
       offset="0%" />
    <stop
       id="stop660426"
       stop-opacity="1"
       stop-color="#000000"
       offset="100%" />
  </linearGradient>
  <linearGradient
     gradientTransform="rotate(-30)"
     spreadMethod="pad"
     y2="0.30000001"
     x2="-0.1"
     y1="1.2"
     x1="0.30000001"
     id="3d_gradient3-logo-cd3ba531-3541-4690-bc67-bca374baa329">
    <stop
       id="stop660429"
       stop-opacity="1"
       stop-color="#ffffff"
       offset="0%" />
    <stop
       id="stop660431"
       stop-opacity="1"
       stop-color="#cccccc"
       offset="50%" />
    <stop
       id="stop660433"
       stop-opacity="1"
       stop-color="#000000"
       offset="100%" />
  </linearGradient>
  <g
     id="logo-group"
     transform="translate(-324.15658,-353.27076)">
    <image
       xlink:href=""
       id="container"
       x="272"
       y="144"
       width="480"
       height="480"
       style="display:none" />
    <g
       id="logo-center">
      <image
         xlink:href=""
         id="icon_container"
         x="0"
         y="0"
         style="display:none" />
      <g
         id="slogan"
         style="font-style:normal;font-weight:400;font-size:32px;line-height:1;font-family:'Open Sans';font-variant-ligatures:none;text-align:center;text-anchor:middle" />
      <g
         id="title"
         style="font-style:normal;font-weight:normal;font-size:72px;line-height:1;font-family:'Brandmark Sans 14 Color';font-variant-ligatures:normal;text-align:center;text-anchor:middle">
        <g
           id="path660452"
           aria-label="f"
           transform="matrix(1.11,0,0,1.11,-70.241898,413.3706)">
          <path
             class="c1"
             d="m 104.29756,84.37223 v 3.73145 h 7.75146 v 9.70422 h -7.75146 v 24.18835 H 92.51363 V 97.8079 h -4.03296 v -9.70422 h 4.03296 v -4.33044 c 0,-8.84167 5.8916,-15.95374 14.70288,-15.95374 2.97461,0 5.27954,1.25513 5.27954,1.25513 v 10.43872 c -4.00708,-1.8772 -8.19849,-2.39503 -8.19849,4.85888 z"
             transform="translate(266.83327,-121.9635)"
             stroke-miterlimit="2"
             id="path827"
             inkscape:connector-curvature="0"
             style="fill:#030303;stroke:#030303;stroke-width:0;stroke-linejoin:miter;stroke-miterlimit:2" />
        </g>
        <g
           id="path660454"
           aria-label="a"
           transform="matrix(1.11,0,0,1.11,-66.911898,413.3706)">
          <path
             class="c1"
             d="m 106.69954,88.03019 h 11.78455 v 33.96533 h -11.78455 v -2.93787 c -2.82764,2.60876 -6.46326,4.17859 -10.42932,4.17859 -9.01453,0 -16.32178,-8.10144 -16.32178,-18.09521 0,-9.99377 7.30725,-18.09521 16.32178,-18.09521 3.96606,0 7.60168,1.57056 10.42932,4.17786 z m 0,17.11084 c 0,-4.3009 -3.05457,-7.78821 -7.17908,-7.78821 -4.12451,0 -7.46777,3.4873 -7.46777,7.78821 0,4.30164 3.34326,7.78894 7.46777,7.78894 4.12451,0 7.17908,-3.48804 7.17908,-7.78894 z"
             transform="translate(302.091,-121.96582)"
             stroke-miterlimit="2"
             id="path830"
             inkscape:connector-curvature="0"
             style="fill:#030303;stroke:#030303;stroke-width:0;stroke-linejoin:miter;stroke-miterlimit:2" />
        </g>
        <g
           id="path660456"
           aria-label="n"
           transform="matrix(1.11,0,0,1.11,-63.581897,413.3706)">
          <path
             class="c1"
             d="m 117.58809,99.88029 v 22.11597 H 105.8044 v -17.6991 c 0,-5.45886 -1.8916,-7.40662 -5.27734,-7.40662 -4.90234,0 -5.98633,3.88037 -5.98633,6.66992 v 18.43506 H 82.75655 V 88.10294 h 11.78418 v 4.13318 c 0,0 2.87305,-4.85901 10.42871,-4.85901 6.72656,0 12.61865,3.8357 12.61865,12.50318 z"
             transform="translate(344.95114,-122.00911)"
             stroke-miterlimit="2"
             id="path833"
             inkscape:connector-curvature="0"
             style="fill:#030303;stroke:#030303;stroke-width:0;stroke-linejoin:miter;stroke-miterlimit:2" />
        </g>
        <g
           id="path660458"
           aria-label="t"
           transform="matrix(1.11,0,0,1.11,-60.251897,413.3706)">
          <path
             class="c1"
             d="m 106.36348,113.47355 v 9.77844 c -6.89941,0 -17.72852,-1.4552 -17.72852,-13.25342 V 98.49418 H 84.9167 V 88.10294 h 3.71826 V 77.92912 h 11.78369 v 30.0022 c 1e-5,2.01904 1.09522,5.54223 5.94483,5.54223 z"
             transform="translate(382.47536,-121.99312)"
             stroke-miterlimit="2"
             id="path836"
             inkscape:connector-curvature="0"
             style="fill:#030303;stroke:#030303;stroke-width:0;stroke-linejoin:miter;stroke-miterlimit:2" />
          <path
             class="c3"
             d="m 102.66182,94.82755 c 0,-3.72119 2.92334,-6.73901 6.53027,-6.73901 3.60596,0 6.5293,3.01782 6.5293,6.73901 0,3.72205 -2.92334,6.73914 -6.5293,6.73914 -3.60693,0 -6.53027,-3.01709 -6.53027,-6.73914 z"
             transform="translate(382.47536,-121.99312)"
             stroke-miterlimit="2"
             id="path838"
             inkscape:connector-curvature="0"
             style="fill:#e8dac4;stroke:#e8dac4;stroke-width:0;stroke-linejoin:miter;stroke-miterlimit:2" />
        </g>
        <g
           id="path660460"
           aria-label="a"
           transform="matrix(1.11,0,0,1.11,-56.921897,413.3706)">
          <path
             class="c1"
             d="m 106.69954,88.03019 h 11.78455 v 33.96533 h -11.78455 v -2.93787 c -2.82764,2.60876 -6.46326,4.17859 -10.42932,4.17859 -9.01453,0 -16.32178,-8.10144 -16.32178,-18.09521 0,-9.99377 7.30725,-18.09521 16.32178,-18.09521 3.96606,0 7.60168,1.57056 10.42932,4.17786 z m 0,17.11084 c 0,-4.3009 -3.05457,-7.78821 -7.17908,-7.78821 -4.12451,0 -7.46777,3.4873 -7.46777,7.78821 0,4.30164 3.34326,7.78894 7.46777,7.78894 4.12451,0 7.17908,-3.48804 7.17908,-7.78894 z"
             transform="translate(421.341,-121.96582)"
             stroke-miterlimit="2"
             id="path841"
             inkscape:connector-curvature="0"
             style="fill:#030303;stroke:#030303;stroke-width:0;stroke-linejoin:miter;stroke-miterlimit:2" />
        </g>
        <g
           id="path660462"
           aria-label="s"
           transform="matrix(1.11,0,0,1.11,-53.591897,413.3706)">
          <path
             class="c1"
             d="m 114.11397,110.5004 c 0,9.28809 -8.54883,12.75159 -15.70996,12.75159 -7.16113,0 -13.19922,-3.89832 -13.19922,-3.89832 l 4.25,-8.45715 c 0,0 4.67725,3.43616 9.27148,3.43616 1.9165,0 3.66992,-1.17957 3.66992,-2.57642 0,-5.26074 -14.6792,-0.70142 -14.6792,-12.61914 0,-9.45654 8.51318,-12.28857 14.74414,-12.28857 3.50537,0 7.99268,0.89429 10.62305,2.18042 l -3.92822,7.79602 c 0,0 -3.44434,-1.71875 -6.30908,-1.71875 -2.45605,0 -3.60498,1.2356 -3.60498,2.44531 0,4.01514 14.87256,0.94263 14.87207,12.94885 z"
             transform="translate(459.5929,-121.98455)"
             stroke-miterlimit="2"
             id="path844"
             inkscape:connector-curvature="0"
             style="fill:#030303;stroke:#030303;stroke-width:0;stroke-linejoin:miter;stroke-miterlimit:2" />
        </g>
        <g
           id="path660464"
           aria-label="t"
           transform="matrix(1.11,0,0,1.11,-50.261897,413.3706)">
          <path
             class="c1"
             d="m 106.36348,113.47355 v 9.77844 c -6.89941,0 -17.72852,-1.4552 -17.72852,-13.25342 V 98.49418 H 84.9167 V 88.10294 h 3.71826 V 77.92912 h 11.78369 v 30.0022 c 1e-5,2.01904 1.09522,5.54223 5.94483,5.54223 z"
             transform="translate(492.58474,-121.99312)"
             stroke-miterlimit="2"
             id="path847"
             inkscape:connector-curvature="0"
             style="fill:#030303;stroke:#030303;stroke-width:0;stroke-linejoin:miter;stroke-miterlimit:2" />
          <path
             class="c3"
             d="m 102.66182,94.82755 c 0,-3.72119 2.92334,-6.73901 6.53027,-6.73901 3.60596,0 6.5293,3.01782 6.5293,6.73901 0,3.72205 -2.92334,6.73914 -6.5293,6.73914 -3.60693,0 -6.53027,-3.01709 -6.53027,-6.73914 z"
             transform="translate(492.58474,-121.99312)"
             stroke-miterlimit="2"
             id="path849"
             inkscape:connector-curvature="0"
             style="fill:#e8dac4;stroke:#e8dac4;stroke-width:0;stroke-linejoin:miter;stroke-miterlimit:2" />
        </g>
        <g
           id="path660466"
           aria-label="i"
           transform="matrix(1.11,0,0,1.11,-46.931897,413.3706)">
          <path
             class="c3"
             d="m 93.48506,75.08781 c 0,-3.72131 2.92334,-6.73901 6.5293,-6.73901 3.60693,0 6.53027,3.0177 6.53027,6.73901 0,3.72205 -2.92334,6.73975 -6.53027,6.73975 -3.60596,-1e-5 -6.5293,-3.01771 -6.5293,-6.73975 z"
             transform="translate(518.77775,-121.9888)"
             stroke-miterlimit="2"
             id="path852"
             inkscape:connector-curvature="0"
             style="fill:#e8dac4;stroke:#e8dac4;stroke-width:0;stroke-linejoin:miter;stroke-miterlimit:2" />
          <path
             class="c1"
             d="M 94.0898,121.99552 V 88.10294 h 11.78442 v 33.89258 z"
             transform="translate(518.77775,-121.9888)"
             stroke-miterlimit="2"
             id="path854"
             inkscape:connector-curvature="0"
             style="fill:#030303;stroke:#030303;stroke-width:0;stroke-linejoin:miter;stroke-miterlimit:2" />
        </g>
        <g
           id="path660468"
           aria-label="x"
           transform="matrix(1.11,0,0,1.11,-43.601897,413.3706)">
          <path
             class="c1"
             d="m 120.44307,121.99625 h -12.47705 l -7.65771,-9.57678 -7.65723,9.57678 H 79.48018 L 93.72334,104.18338 80.86641,88.10294 h 12.47705 l 6.61816,8.2771 6.61816,-8.2771 h 13.16992 l -13.20312,16.51318 z"
             transform="translate(549.32238,-122.01494)"
             stroke-miterlimit="2"
             id="path857"
             inkscape:connector-curvature="0"
             style="fill:#030303;stroke:#030303;stroke-width:0;stroke-linejoin:miter;stroke-miterlimit:2" />
        </g>
      </g>
      <image
         xlink:href=""
         id="icon"
         x="0"
         y="0"
         style="display:none" />
    </g>
  </g>
</svg>
