<svg width="14" height="20" version="1.1" xmlns="http://www.w3.org/2000/svg" class="mx-1">
<g id="Design" stroke="none" stroke-width="1" fill="none" fill-rule="evenodd"><g id="01-itCraft-Home-Page-option1" transform="translate(-1071 -8582)" fill="currentColor" fill-rule="nonzero"><g id="::FOOTER::" transform="translate(0 7845)"><g id="Group-2" transform="translate(1071 737)"><g id="icons8-touchscreen_smartphone"><path d="M2.333 0C1.051 0 0 1.04 0 2.308v15.384C0 18.96 1.051 20 2.333 20h9.334C12.949 20 14 18.96 14 17.692V2.308C14 1.04 12.949 0 11.667 0H2.333zm0 1.538h9.334c.437 0 .777.337.777.77v15.384c0 .433-.34.77-.777.77H2.333a.764.764 0 0 1-.777-.77V2.308c0-.433.34-.77.777-.77zM7 3.077a.771.771 0 0 0-.778.77c0 .426.347.768.778.768a.771.771 0 0 0 .778-.769.771.771 0 0 0-.778-.77zM4.667 15.385v1.538h4.666v-1.538H4.667z" id="Shape"></path></g></g></g></g></g>
 </svg>