<svg width="261" height="306" viewBox="0 0 261 306" fill="none" xmlns="http://www.w3.org/2000/svg">
<path d="M43.6331 186.078C106.208 135.73 160.809 155.476 209.359 169.489C322 202 175.661 310.487 69.0001 283C-7.46192 263.296 3.00785 218.765 43.6331 186.078Z" fill="#F7F9FA"/>
<path d="M155.4 199.7L120.8 186.1L117.5 170.9L157.2 185.3L155.4 199.7Z" fill="#E2E6E9"/>
<path d="M116.7 221.5C114.9 225.8 114.7 229.5 117.4 232.7C119.8 235.6 131.9 232.9 132.9 230.4C134 227.6 133 222.8 130.6 220.2C128.2 217.4 118.3 219.1 116.7 221.5Z" fill="white"/>
<path d="M121.8 234.6C119.9 234.6 117.9 234.3 116.9 233.1C114.3 230 114 226.2 116.1 221.2L116.2 221.1C117.3 219.5 121.1 218.3 124.4 218.1C126.3 218 129.7 218 131.2 219.6C133.8 222.5 134.9 227.5 133.6 230.6C132.9 232.4 128.7 233.8 125.2 234.3C124.4 234.5 123.1 234.6 121.8 234.6ZM117.4 221.8C115.6 226.3 115.8 229.5 118 232.1C118.8 233.1 121.5 233.3 124.9 232.8C129.1 232.1 131.9 230.7 132.2 230C133.2 227.5 132.2 223 130 220.5C129.2 219.6 127.1 219.2 124.4 219.4C121 219.8 118.1 220.9 117.4 221.8Z" fill="#213542"/>
<path d="M117.2 233.2C117.1 233.2 117.1 233.2 117 233.2C116.6 233.1 116.4 232.7 116.5 232.3C117.6 228.6 123.6 227.5 126.4 227.5C126.8 227.5 127.1 227.8 127.1 228.3C127.1 228.7 126.7 229.1 126.3 229C123.8 229 118.6 230.1 117.8 232.7C117.8 233 117.5 233.2 117.2 233.2Z" fill="#213542"/>
<path d="M98.8002 241.9C100.4 242.6 102.5 245.9 102.5 250.5C102.5 256.4 85.6002 257.6 78.8002 255.9C77.7002 244.9 85.8002 242.6 90.5002 241.4C92.9002 240.8 98.8002 241.9 98.8002 241.9Z" fill="white"/>
<path d="M86.1002 257.4C83.2002 257.4 80.6002 257.1 78.7002 256.7L78.2002 256.5L78.1002 256C76.9002 244.2 86.0002 241.9 90.4002 240.7C92.8002 240.1 98.7002 241.1 99.0002 241.2L99.2002 241.3C101.2 242.2 103.3 246 103.3 250.6C103.3 251.9 102.7 253.1 101.4 254C98.3002 256.3 91.8002 257.4 86.1002 257.4ZM79.6002 255.3C85.2002 256.5 96.6002 255.8 100.5 252.8C101.4 252.1 101.8 251.4 101.8 250.5C101.8 246 99.8002 243.2 98.6002 242.6C96.9002 242.3 92.5002 241.7 90.8002 242.1C86.3002 243.3 78.8002 245.3 79.6002 255.3Z" fill="#213542"/>
<path d="M161.9 224.5L159.8 218.4L184.3 208.8C187.6 207.7 191.3 209.4 192.4 212.8L161.9 224.5Z" fill="#E2E6E9"/>
<path d="M140.4 213.9C141.6 210.6 145.3 208.9 148.6 210.1L167.8 218.4L165.6 224.4L140.4 213.9Z" fill="#E2E6E9"/>
<path d="M170.5 225.1H157.2L160.6 174.5H167L170.5 225.1Z" fill="#C5CDD3"/>
<path d="M155.3 199.7C155.3 199.7 154.4 188.2 157.2 186.1C170.7 176.3 203.6 173.4 203.6 173.4C203.6 173.4 203.2 179.4 202 180.8C196.6 187.4 155.3 199.7 155.3 199.7Z" fill="#E2E6E9"/>
<path d="M143.2 151.7C149.2 160.7 187.9 171.7 203.5 173.5C211.5 143.8 223.4 103.8 231.8 73.2001C207.1 70.2001 178.3 63.7001 156.3 60.1001C156.3 60.1001 149.4 116.7 143.2 151.7Z" fill="#E2E6E9"/>
<path d="M163.8 226.8C167.5 226.8 170.5 226.039 170.5 225.1C170.5 224.161 167.5 223.4 163.8 223.4C160.1 223.4 157.1 224.161 157.1 225.1C157.1 226.039 160.1 226.8 163.8 226.8Z" fill="#C5CDD3"/>
<path d="M167.4 226.3C167.2 221.8 169.6 220.3 169.6 220.3L187.3 228C190.6 229.2 192.3 232.9 191.1 236.2C191.1 236.3 174.1 228.9 167.4 226.3Z" fill="#E2E6E9"/>
<path d="M136.2 234.4C135.1 231.1 136.8 227.4 140.2 226.3C140.2 226.3 152.8 221.8 158.2 220.4C160.6 221.9 160.3 226.5 160.3 226.5L136.2 234.4Z" fill="#E2E6E9"/>
<path d="M144.8 232.3C144.5 232.3 144.2 232.1 144.1 231.8C144 231.4 144.2 231 144.6 230.9L160 225.7C160.4 225.6 160.8 225.8 160.9 226.2C161 226.6 160.8 227 160.4 227.1L145 232.3C145 232.2 144.9 232.3 144.8 232.3Z" fill="#213542"/>
<path d="M183.5 233.7C183.4 233.7 183.3 233.7 183.2 233.6L167.1 226.9C166.7 226.7 166.5 226.3 166.7 225.9C166.9 225.5 167.3 225.3 167.7 225.5L183.8 232.2C184.2 232.4 184.4 232.8 184.2 233.2C184.1 233.6 183.8 233.7 183.5 233.7Z" fill="#213542"/>
<path d="M159.5 188.2L124.9 174.5L166.3 159.6L202.7 173.6L159.5 188.2Z" fill="#E2E6E9"/>
<path d="M194.8 172.5H194.7C183.4 170.5 151.2 162.8 145.9 159.9C145.5 159.7 145.4 159.2 145.6 158.9C145.8 158.6 146.3 158.4 146.6 158.6C151.4 161.2 182.9 168.9 195 171C195.4 171.1 195.7 171.5 195.6 171.9C195.5 172.2 195.2 172.5 194.8 172.5Z" fill="#213542"/>
<path d="M159.3 87.0001C155.1 87.0001 148.7 76.2001 146.5 83.2001C143.2 93.9001 140.2 111.7 137.9 115.2C136.2 117.8 115 133.5 111.6 138.3C110.8 139.4 113.6 143.8 115.5 143.6C120.2 143.1 147.9 124.2 149.8 121.1C151.3 118.8 163.5 87.0001 159.3 87.0001Z" fill="#FEE6DC"/>
<path d="M166 57C152 58.7 146.1 77.9 143.7 87.5C142.8 91.2 157.3 93.7 161.4 92.7C164.4 92 170.6 84.4 174.9 84.7C178.9 85 171.1 56.4 166 57Z" fill="#AA2EB3"/>
<path d="M190.3 65.7C185.2 68.2 173.6 64.2 175.3 58.7C176.4 51.4 179.5 38.5 179.5 38.5C179.5 38.5 193 38.4 192.4 42.3C191.2 49.8 191.5 58.7 190.3 65.7Z" fill="#FEE6DC"/>
<path d="M173.6 137.4C172.7 141.2 166.7 161 145.6 158.3C132.5 156.6 109.2 150.5 118.9 144.8C137.7 133.9 131.4 136.6 152.3 126.4C162.6 121.4 173.6 137.4 173.6 137.4Z" fill="#0291D9"/>
<path d="M190.3 149.2C189.4 153 187.8 167.3 167.4 173.6C156.7 176.9 117.3 182.2 115.5 189.3C108.1 218.2 102.6 240.7 101.7 244.1C100.9 246.9 87.4998 245.9 88.1998 239.2C88.4998 236.1 87.5998 169.2 100.5 160.2C121.6 145.6 143.4 145.3 162.6 137.3C173.1 137.5 190.3 149.2 190.3 149.2Z" fill="#0291D9"/>
<path d="M183 54.7999C188.7 52.6999 190.7 45.2999 196.3 37.7999C198.4 34.9999 199.5 30.5999 199.4 27.6999C199.4 25.9999 195.7 25.9999 195.5 24.0999C193.4 8.89988 180.4 3.89988 171.3 7.79988C163.9 10.9999 158 18.7999 161.3 35.8999C164.6 52.5999 173.4 58.1999 183 54.7999Z" fill="#FEE6DC"/>
<path d="M126.7 146.3C129.2 151.2 133.3 185.3 131.5 220.3C125.8 219.2 120.2 219.2 115.9 222.4C111.5 189.8 104 163.7 103.1 152.5C102.2 140 123.4 139.8 126.7 146.3Z" fill="#0291D9"/>
<path d="M210.3 90.7999C214.7 76.9999 212.3 75.5999 210.2 69.9999C209.8 68.8999 202.7 59.4999 191.4 58.1999C190.8 63.1999 173.1 67.1999 175.8 56.9999C173.4 56.7999 164.1 55.5999 160.7 58.8999C147.5 71.3999 155.9 86.2999 150.2 127.5C164.6 131.7 173.4 162.9 190.3 149.2C195.2 130 201.1 119.5 210.3 90.7999Z" fill="#AA2EB3"/>
<path d="M181.746 105.633C181.182 102.322 180.109 97.9722 179.394 94.7068L179.045 93.1287L178.856 92.3195C178.791 92.0612 178.616 91.8199 178.388 91.6758C178.16 91.5318 177.886 91.4507 177.635 91.4443C177.378 91.4723 177.075 91.5632 176.866 91.7404C176.825 91.7689 176.779 91.8319 176.732 91.8948L176.692 91.9234L176.651 91.952L176.384 92.2609C175.674 93.0618 174.995 93.903 174.285 94.7039L172.484 96.8782L171.731 94.4903L170.731 91.4249L170.231 89.8922L170.154 89.7027L170.125 89.6625L170.101 89.5878L170.043 89.5074C170.019 89.4327 169.99 89.3925 169.932 89.3121C169.756 89.0707 169.499 88.8864 169.26 88.8112C168.985 88.7301 168.699 88.7179 168.426 88.849C168.309 88.9003 168.152 88.9801 168.065 89.0717C167.943 89.1573 167.844 89.3177 167.85 89.2833L167.716 89.4377L167.246 90.1017C166.595 90.9831 165.985 91.8359 165.37 92.7231C163.442 95.4419 160.898 99.0479 159.098 101.859C158.901 102.179 159.351 102.502 159.612 102.227C161.926 99.7849 164.751 96.4378 166.936 93.9032C167.43 93.3139 167.964 92.696 168.464 92.0723L168.493 92.1125L169.418 95.2006L170.377 98.2946L170.607 99.0752L170.725 99.4484L170.754 99.4886L170.748 99.523L170.772 99.5976L170.824 99.7125C170.959 99.9824 171.17 100.23 171.433 100.379C171.696 100.529 172.011 100.582 172.308 100.525C172.599 100.503 172.914 100.343 173.094 100.126C173.228 99.9716 173.181 100.035 173.222 100.006L173.263 99.9774L173.315 99.8801L173.449 99.7256L173.716 99.4166L174.216 98.7929L176.185 96.2578C176.592 95.76 176.969 95.2219 177.376 94.7241L177.57 95.2867C178.07 96.8194 178.635 98.6104 179.27 100.413L176.775 100.103C176.402 100.183 176.783 100.918 177.191 101.079C177.598 101.241 179.776 101.911 179.776 101.911C180.258 103.335 180.752 104.69 181.199 105.896C181.263 106.154 181.794 105.995 181.746 105.633Z" fill="white"/>
<path d="M204 93.9999C199.8 93.2999 189 119.4 186.5 126.3C176 131.9 162.7 144.2 159.5 144C154.1 143.6 157.2 146.7 149.1 144.6C146.7 144 145.4 148.7 146.9 149.7C151.4 152.3 153.7 153.7 161.5 152.5C166.2 151.8 190 140.1 193.1 138.1C197.9 135.1 209 115.5 211 106.4C214 92.9999 208.2 94.5999 204 93.9999Z" fill="#FEE6DC"/>
<path d="M211.7 73.6999C215.2 86.1999 215.3 100.9 211.9 110.1C210.6 113.6 195.6 109 192.8 105.9C190.7 103.6 190.6 93.8999 186.9 91.6999C183.3 89.5999 210.3 68.6999 211.7 73.6999Z" fill="#AA2EB3"/>
<path d="M155.3 200.5C155 200.5 154.6 200.3 154.6 199.9C153.3 194.3 152.5 188.2 158.6 185.9C163.9 183.9 178.9 179.5 184.8 178.9C185.2 178.9 185.6 179.2 185.6 179.6C185.6 180 185.3 180.4 184.9 180.4C179.6 181 164.7 185.2 159.1 187.3C154.6 189 154.6 193.2 156 199.5C156.1 199.9 155.8 200.3 155.4 200.4C155.4 200.5 155.3 200.5 155.3 200.5Z" fill="#213542"/>
<path d="M139.4 150.7L97.7002 140.7L115.8 134.2L157.5 144.2L139.4 150.7Z" fill="#E2E6E9"/>
<path d="M139.4 150.7L97.6998 140.7L90.7998 113.1L132.4 123.1L139.4 150.7Z" fill="#C5CDD3"/>
<path d="M158.1 144.2C156.1 143.2 153.4 142.4 151.8 143.1C150.2 143.8 151.1 144.9 152.5 145C153.8 145.1 154.8 145.5 155.8 146.1C156.9 146.7 158.1 144.2 158.1 144.2Z" fill="#FEE6DC"/>
<path d="M208.2 112.2C203.1 112.2 195.1 109.4 193 107C191.8 105.6 192 102.4 192.2 98.5999C192.4 95.1999 192.7 91.3999 191.7 89.4999C191.5 89.0999 191.7 88.6999 192 88.4999C192.4 88.2999 192.8 88.4999 193 88.7999C194.1 91.0999 193.9 94.8999 193.7 98.5999C193.5 101.6 193.3 105 194.1 105.9C196.2 108.2 205.7 111.2 209.8 110.4C210.3 110.3 211 110.1 211.2 109.6C211.3 109.2 211.8 109 212.2 109.2C212.6 109.3 212.8 109.8 212.6 110.2C212.3 111.1 211.4 111.7 210.1 111.9C209.5 112.2 208.9 112.2 208.2 112.2Z" fill="#213542"/>
<path d="M152.5 92.9001C152.1 92.9001 151.7 92.6001 151.7 92.1001C151.7 86.2001 152.7 81.8001 154.2 80.2001C154.5 79.9001 155 79.9001 155.3 80.2001C155.6 80.5001 155.6 81.0001 155.3 81.3001C154.3 82.3001 153.3 86.1001 153.2 92.1001C153.3 92.6001 152.9 92.9001 152.5 92.9001Z" fill="#213542"/>
<path d="M157.2 153.6C152.2 153.6 149.1 151.9 145 149.4C144.6 149.2 144.5 148.7 144.8 148.4C145 148 145.5 147.9 145.8 148.2C150.6 151.2 154 153 161.4 151.8C166 151.1 189.9 139.4 192.7 137.5C196.4 135.1 204.8 121.3 208.7 111.1C208.8 110.7 209.3 110.5 209.7 110.7C210.1 110.8 210.3 111.3 210.1 111.7C206.4 121.3 197.8 136 193.5 138.8C190.6 140.7 166.5 152.5 161.6 153.3C160 153.4 158.5 153.6 157.2 153.6Z" fill="#213542"/>
<path d="M139.4 151.5L106.1 143.5C105.7 143.4 105.4 143 105.5 142.6C105.6 142.2 106 142 106.4 142L139.3 149.9L154.1 144.6C154.5 144.5 154.9 144.7 155.1 145.1C155.2 145.5 155 145.9 154.6 146.1L139.4 151.5Z" fill="#213542"/>
<path d="M154.3 146.1H154.2C153.9 146 153.4 146 153 145.9C152.6 145.8 152.3 145.8 152.1 145.7C151 145.5 150.3 145 150.2 144.2C150.1 143.8 150.3 143 151.6 142.4C152.7 141.9 154.2 142.3 155.8 142.7C156.9 143 158.1 143.3 159.3 143.4C160.6 142.8 164.7 139.9 169 136.8C175.9 132 183.7 126.5 186.3 125.5C186.7 125.4 187.1 125.6 187.3 125.9C187.4 126.3 187.2 126.7 186.9 126.9C184.6 127.8 176.5 133.4 170 138C164.5 141.9 161 144.3 159.9 144.8L159.7 144.9H159.5C158 144.8 156.7 144.5 155.5 144.2C154.1 143.9 152.9 143.6 152.2 143.8C152 143.9 151.9 144 151.8 144C151.9 144.1 152.1 144.1 152.4 144.2C152.6 144.2 153 144.3 153.4 144.4C153.8 144.5 154.3 144.6 154.6 144.6C155 144.7 155.3 145.1 155.2 145.5C155 145.8 154.7 146.1 154.3 146.1Z" fill="#213542"/>
<path d="M181.8 63.9C180.9 63.9 180 63.8 179.2 63.6C176.4 62.9 174.7 61.2 174.5 58.8C174.5 58.4 174.8 58 175.2 58C175.6 58 176 58.3 176 58.7C176.1 61 178.2 61.9 179.5 62.2C183.2 63.1 188.6 61.6 190.7 57.9C190.9 57.5 191.4 57.4 191.7 57.6C192.1 57.8 192.2 58.3 192 58.6C190 62.1 185.6 63.9 181.8 63.9Z" fill="#213542"/>
<path d="M164.7 46.9001C164.4 46.9001 164.1 46.7001 164 46.4001C163.9 46.1001 161.4 40.2001 160.6 35.9001C159.5 30.5001 159.3 25.7001 160 21.6001C160.1 21.2001 160.4 20.9001 160.9 21.0001C161.3 21.1001 161.6 21.5001 161.5 21.9001C160.8 25.8001 161 30.5001 162.1 35.7001C162.9 39.8001 165.4 45.8001 165.4 45.9001C165.6 46.3001 165.4 46.7001 165 46.9001C164.9 46.9001 164.8 46.9001 164.7 46.9001Z" fill="#213542"/>
<path d="M194 2.79993C191.7 1.89993 177.8 -2.60007 169.1 4.09993C166.2 6.29993 164.7 5.19993 162.9 6.49993C161.8 7.29993 162.2 10.7999 158.1 10.1999C154.9 9.79993 154.9 16.6999 160.5 21.5999C165.9 26.2999 194.6 15.6999 193.7 24.3999C193 30.8999 190 50.6999 176 50.6999C169.8 50.6999 169.5 48.5999 165.4 46.1999C165.1 45.9999 164.6 46.8999 164.2 46.6999C165.9 55.7999 171.7 58.4999 176.8 58.4999C185.8 58.4999 188.2 51.2999 192.3 48.0999C195.5 45.5999 196.8 42.1999 196.7 36.8999C196.7 36.8999 195.4 28.2999 197.4 26.6999C198.5 25.7999 199.1 26.3999 199.3 27.6999C199.5 28.8999 200.2 23.7999 200.5 20.9999C201.3 13.4999 198.7 4.59993 194 2.79993Z" fill="#91553D"/>
<path d="M115.4 223.7L115.2 222.4C112.7 204 110 191.3 108 182C106.4 174.5 105.2 169.1 104.9 164.2C104.9 163.8 105.2 163.4 105.6 163.4C106 163.4 106.4 163.7 106.4 164.1C106.8 168.9 107.9 174.3 109.5 181.7C111.5 190.8 114.1 203.3 116.6 221C120.8 218.3 125.4 217.7 130.9 219.3C131.5 209.9 130.5 169.4 129.2 164.8C129.1 164.4 129.3 164 129.7 163.9C130.1 163.8 130.5 164 130.6 164.4C131.9 169.2 133 213.1 132.3 220.3L132.2 221.2L131.3 220.9C125.4 219 120.8 219.6 116.4 222.9L115.4 223.7Z" fill="#213542"/>
<path d="M39.5004 24C65.0001 26 79.5 60.5 62.5 60.5C47.3312 60.5 68.5003 33.9993 85.0005 43.0002C101.501 52.001 90.0005 75.5002 93.5005 94.5002" stroke="#B7C0C8" stroke-width="1.5" stroke-miterlimit="4.13357" stroke-linecap="round" stroke-dasharray="8 8"/>
<path d="M88 95.9866L94.4436 99.7957C94.919 100.077 95.5323 99.9191 95.8133 99.4437L99.6224 93.0001" stroke="#B7C0C8" stroke-width="1.5" stroke-linecap="round"/>
</svg>

