<?xml version="1.0" encoding="UTF-8"?>
<svg width="752pt" height="752pt" version="1.1" viewBox="0 0 752 752" xmlns="http://www.w3.org/2000/svg">
 <path d="m319.55 379.98-89.789 89.789c-0.042968 0.042968-0.054687 0.097656-0.09375 0.14062-0.37891 0.40625-0.68359 0.875-0.92187 1.3867-0.058594 0.125-0.125 0.24219-0.17188 0.375-0.03125 0.085938-0.085937 0.15625-0.11328 0.24219l-20.598 65.629c-0.58594 1.8672-0.085937 3.9102 1.3008 5.2969 1.0039 1.0039 2.3477 1.543 3.7227 1.543 0.52734 0 1.0586-0.078125 1.5742-0.24219l65.629-20.598c0.085937-0.027344 0.16016-0.082031 0.24219-0.11328 0.13281-0.046875 0.24609-0.11328 0.375-0.17188 0.51172-0.23828 0.98047-0.53906 1.3867-0.92188 0.042968-0.039063 0.097656-0.050782 0.14062-0.09375l89.789-89.789 110.39 110.39c0.98828 0.98828 2.3242 1.543 3.7188 1.543s2.7344-0.55469 3.7227-1.543l52.996-52.996c2.0547-2.0547 2.0547-5.3867 0-7.4414l-110.39-110.39 106.61-106.61c3.4258-3.4297 5.3164-7.9844 5.3164-12.836 0-4.8477-1.8867-9.4062-5.3164-12.836l-26.805-26.805c-7.0781-7.0781-18.59-7.0742-25.664 0l-106.62 106.61-110.39-110.39c-2.0547-2.0547-5.3867-2.0547-7.4414 0l-52.996 52.996c-0.98828 0.98828-1.5391 2.3242-1.5391 3.7188s0.55469 2.7344 1.5391 3.7188zm-98.633 151.1 14.98-47.73 32.75 32.75zm212.95-142.78 13.465 13.465-22.062 22.066c-2.0547 2.0547-2.0547 5.3867 0 7.4414 1.0273 1.0273 2.375 1.543 3.7188 1.543 1.3477 0 2.6914-0.51562 3.7188-1.543l22.062-22.066 13.469 13.469-11.422 11.422c-2.0547 2.0547-2.0547 5.3867 0 7.4414 1.0273 1.0273 2.375 1.543 3.7188 1.543 1.3477 0 2.6914-0.51563 3.7188-1.543l11.422-11.422 13.465 13.465-11.422 11.422c-2.0547 2.0547-2.0547 5.3867 0 7.4414 1.0273 1.0273 2.375 1.5391 3.7188 1.5391 1.3477 0 2.6914-0.51172 3.7188-1.5391l11.422-11.422 13.465 13.465-22.051 22.066c-2.0547 2.0547-2.0547 5.3867 0 7.4414 1.0273 1.0273 2.375 1.543 3.7188 1.543 1.3477 0 2.6914-0.51172 3.7188-1.543l22.066-22.066 14.191 14.195-45.559 45.559-106.66-106.67 20.965-20.965 24.594-24.59 1.4023 1.4023-11.422 11.422c-2.0547 2.0547-2.0547 5.3867 0 7.4414 1.0273 1.0273 2.375 1.543 3.7188 1.543 1.3477 0 2.6914-0.51562 3.7227-1.543zm-155.35 122.78-15.074-15.074 225.98-225.98 15.074 15.074zm215.53-290.71c2.8828-2.8711 7.9023-2.8789 10.785 0l26.805 26.805c1.4375 1.4414 2.2344 3.3555 2.2344 5.3945 0 2.0352-0.79297 3.9492-2.2344 5.3906l-19.703 19.703-37.59-37.59zm-27.145 27.145 15.074 15.074-225.98 225.98-15.074-15.074zm-201.02-27.199 14.195 14.195-11.422 11.422c-2.0547 2.0547-2.0547 5.3867 0 7.4414 1.0273 1.0273 2.375 1.543 3.7188 1.543 1.3477 0 2.6914-0.51562 3.7227-1.543l11.422-11.422 13.465 13.465-11.422 11.422c-2.0547 2.0547-2.0547 5.3867 0 7.4414 1.0273 1.0273 2.375 1.543 3.7227 1.543s2.6914-0.51172 3.7188-1.543l11.422-11.422 13.469 13.469-22.066 22.062c-2.0547 2.0547-2.0547 5.3867 0 7.4414 1.0273 1.0273 2.375 1.543 3.7227 1.543 1.3477 0 2.6914-0.51172 3.7188-1.543l22.066-22.062 13.465 13.465-11.422 11.422c-2.0547 2.0508-2.0547 5.3867 0 7.4414 1.0273 1.0273 2.375 1.5391 3.7227 1.5391s2.6914-0.51172 3.7188-1.5391l11.422-11.422 13.465 13.465-11.422 11.422c-2.0547 2.0547-2.0547 5.3867 0 7.4414 1.0273 1.0273 2.375 1.543 3.7188 1.543 1.3477 0 2.6914-0.51562 3.7188-1.543l11.422-11.422 1.4023 1.4023-45.555 45.559-106.66-106.67z"/>
</svg>
