<?xml version="1.0" encoding="UTF-8"?>
<svg width="832px" height="864px" viewBox="0 0 832 864" version="1.1" xmlns="http://www.w3.org/2000/svg" xmlns:xlink="http://www.w3.org/1999/xlink">
    <title>xenon-code-apps-1</title>
    <g id="xenon-code-apps-1" stroke="none" stroke-width="1" fill="none" fill-rule="evenodd">
        <g id="Artwork" transform="translate(206.084000, 2.588000)">
            <path d="M266.532,763.056 C266.532,763.056 231.756,715.008 209.916,714.168 C209.748,726.768 210.812096,802.2 214.676096,833.532 L318.826753,833.532 L266.532,763.056 Z" id="Path" fill="#14B14E" fill-rule="nonzero"></path>
            <path d="M383.325675,819.455633 C383.947259,818.791863 384.658397,818.050364 385.390968,817.21554 C387.070434,815.301655 388.955134,812.887405 390.792017,809.724377 C392.018587,807.612279 393.413838,804.504977 394.513632,801.368576 C394.934016,800.169719 395.609054,797.959308 395.992073,796.099232 C396.292901,794.638305 396.693975,792.992277 396.759374,791.339397 C396.775298,790.936928 396.842855,790.522157 396.88722,790.105656 C396.964423,789.380878 397.031745,788.642917 397.068,787.898368 C397.087279,787.502452 397.068,785.56996 397.068,785.000695 C397.068,784.431431 397.068,783.22056 397.068,782.724562 C397.068,782.228563 397.068,779.984049 397.068,778.510366 C397.068,777.036683 397.036969,776.590637 397.068,775.590904 C397.218882,770.729885 396.996604,764.978133 397.068,758.325273 C397.177611,748.111483 397.177611,728.058306 397.068,698.165742 L311.22,679.812 L220.668,714.252 C224.952,723.996 241.545215,776.916 289.845215,833.532 C302.709405,833.485187 311.708196,833.485187 316.841587,833.532 C325.454802,833.610547 332.442761,833.518706 337.805382,833.532 C341.706433,833.541671 344.747459,833.711715 346.927938,833.532 C347.939376,833.448637 351.640252,833.607655 355.112643,833.213904 C358.253378,832.857762 360.852691,832.138537 361.928928,831.872227 C363.005166,831.605918 364.063342,831.275305 365.022066,830.951416 C366.573006,830.427457 367.932425,829.835414 369.162455,829.304895 C370.876603,828.565575 372.274475,827.732295 373.510455,827.056249 C375.003104,826.239811 375.965779,825.522899 376.766909,824.970737 C378.267056,823.936791 378.9306,823.351435 379.545592,822.86359 C380.12669,822.402632 380.707879,821.920441 381.517509,821.187105 C382.022321,820.729863 382.642276,820.185413 383.325675,819.455633 Z" id="Path" fill="#18C959" fill-rule="nonzero"></path>
            <path d="M183.036,493.668 C175.224,493.5 175.224,505.512 175.224,505.512 C171.444,494.256 88.956,289.044 88.956,289.044 C88.956,289.044 71.904,296.268 91.56,335.076 C85.176,338.856 67.452,353.052 74.76,375.9 C80.304,393.036 92.4,399.084 99.96,399.084 C98.7,411.936 126.168,543.228 129.78,549.528 C138.18,564.396 154.392,580.608 163.968,581.028 C179.256,581.784 216.888,561.708 226.212,551.208 C235.536,540.708 197.736,493.92 183.036,493.668 Z" id="Path" fill="#DE8E68" fill-rule="nonzero"></path>
            <path d="M296.604,421.26 C259.392,388.08 168.588,467.544 170.352,481.32 C172.116,495.096 221.004,544.908 235.368,540.708 C249.732,536.508 325.92,447.3 296.604,421.26 Z" id="Path" fill="#008BD4" fill-rule="nonzero"></path>
            <path d="M397.068,426.72 C380.52,399.924 356.244,382.62 321.468,382.62 C200.676,382.62 197.316,696.78 209.916,714.252 C221.088,729.708 354.228,733.74 397.068,723.072" id="Path" fill="#0097E6" fill-rule="nonzero"></path>
            <path d="M397.068,417.534039 C396.707177,417.534039 394.685172,416.577645 389.844,417.648 C343.985741,427.78699 376.74,550.788 389.844,554.988 C392.644,555.884 395.052,556.165549 397.068,555.832647 C397.228231,463.633575 397.228231,417.534039 397.068,417.534039 Z" id="Path" fill="#00A8FF" fill-rule="nonzero"></path>
            <path d="M344.568,410.172 C344.568,420.168 289.212,422.352 289.212,410.172 L289.212,342.132 L344.568,342.132 L344.568,410.172 Z" id="Path" fill="#C77E5B" fill-rule="nonzero"></path>
            <ellipse id="Oval" fill="#DE8E68" fill-rule="nonzero" transform="translate(309.596969, 313.144801) rotate(-68.303917) translate(-309.596969, -313.144801) " cx="309.596969" cy="313.144801" rx="67.4550599" ry="50.1502749"></ellipse>
            <ellipse id="Oval" fill="#DE8E68" fill-rule="nonzero" transform="translate(352.813465, 336.779755) rotate(-54.388392) translate(-352.813465, -336.779755) " cx="352.813465" cy="336.779755" rx="15.8763357" ry="11.0882345"></ellipse>
            <path d="M399.336,304.836 C399.336,295.596 390.684,285.432 389.088,273.84 C388.248,267.96 390.096,243.516 383.208,235.2 C368.928,218.064 360.528,221.592 349.608,217.56 C330.624,210.588 323.316,199.08 307.608,199.08 C289.8,199.08 282.576,208.32 269.808,208.32 C255.192,208.32 243.264,201.6 222.768,201.6 C211.848,201.6 197.568,215.88 197.568,228.48 C197.568,258.3 225.288,254.016 225.288,261.24 C225.288,266.28 223.608,270.312 223.608,277.2 C223.608,286.272 235.368,291.48 242.088,291.48 C262.584,291.48 265.272,288.96 265.272,288.96 C269.304,280.812 274.512,273.336 280.728,266.7 C281.568,265.86 294.84,275.184 316.512,275.94 C334.32,276.528 346.836,279.972 346.836,288.288 C346.836,294.168 344.652,311.556 344.82,316.428 C344.988,321.3 346.668,324.492 347.76,324.492 C348.852,324.492 349.44,322.896 356.328,322.896 C363.636,322.896 364.224,331.884 365.484,331.884 C372.876,331.884 399.336,325.92 399.336,304.836 Z" id="Path" fill="#CECECE" fill-rule="nonzero"></path>
            <path d="M67.788,187.992 L109.704,187.992 C122.136,187.992 132.216,198.072 132.216,210.504 L132.216,252.42 C132.216,264.852 122.136,274.932 109.704,274.932 L67.788,274.932 C55.356,274.932 45.276,264.852 45.276,252.42 L45.276,210.504 C45.276,198.072 55.356,187.992 67.788,187.992 Z" id="Path" fill="#862FFC" fill-rule="nonzero"></path>
            <circle id="Oval" fill="#FC2EAD" fill-rule="nonzero" cx="121.8" cy="194.964" r="17.808"></circle>
            <path d="M350.952,0 L68.796,0 C30.828,0 -2.84217094e-14,30.828 -2.84217094e-14,68.796 L-2.84217094e-14,790.188 C-2.84217094e-14,828.156 30.828,858.984 68.796,858.984 L68.796,858.984 L350.952,858.984 C388.92,858.984 419.748,828.156 419.748,790.188 L419.748,68.796 C419.748,30.828 388.92,0 350.952,0 Z M397.068,426.72 L397.068,785.988 C397.068,812.28 375.816,833.532 349.524,833.532 L349.524,833.532 L70.308,833.532 C44.016,833.532 22.764,812.28 22.764,785.988 L22.764,785.988 L22.764,73.164 C22.764,46.872 44.016,25.62 70.308,25.62 L349.524,25.62 C375.816,25.62 397.068,46.872 397.068,73.164 L397.068,73.164 L397.068,426.72 L397.068,426.72 Z" id="Shape" fill-opacity="0.3" fill="#6D7278" fill-rule="nonzero"></path>
            <path d="M116.676,25.452 L303.156,25.452 L303.156,38.052 C303.156,46.4025454 296.386545,53.172 288.036,53.172 L131.796,53.172 C123.445455,53.172 116.676,46.4025454 116.676,38.052 L116.676,25.452 L116.676,25.452 Z" id="Rectangle" fill-opacity="0.3" fill="#6D7278"></path>
        </g>
    </g>
</svg>