<?xml version="1.0" encoding="UTF-8"?>
<svg width="752pt" height="752pt" version="1.1" viewBox="0 0 752 752" xmlns="http://www.w3.org/2000/svg">
 <g>
  <path d="m452.07 349.27c-3.8672-3.8711-10.141-3.8711-14.012 0-3.8672 3.8672-3.8672 10.141 0 14.008l52.293 52.191-52.293 52.191v0.003906c-1.8672 1.8516-2.918 4.375-2.918 7.0039 0 2.6289 1.0508 5.1523 2.918 7.0039 1.8555 1.8672 4.375 2.918 7.0078 2.918 2.6289 0 5.1523-1.0508 7.0039-2.918l59.199-59.199v0.003906c1.8672-1.8555 2.918-4.375 2.918-7.0078 0-2.6289-1.0508-5.1523-2.918-7.0039z"/>
  <path d="m313.94 349.27c-1.8516-1.8711-4.375-2.9219-7.0039-2.9219s-5.1523 1.0508-7.0039 2.9219l-59.199 59.199v-0.003906c-1.8672 1.8516-2.918 4.375-2.918 7.0039 0 2.6328 1.0508 5.1523 2.918 7.0078l59.199 59.199v-0.003906c1.8516 1.8672 4.375 2.918 7.0039 2.918s5.1523-1.0508 7.0039-2.918c1.8672-1.8516 2.918-4.375 2.918-7.0039 0-2.6289-1.0508-5.1523-2.918-7.0039l-52.289-52.195 52.293-52.191h-0.003906c1.8672-1.8516 2.918-4.375 2.918-7.0039 0-2.6328-1.0508-5.1523-2.918-7.0039z"/>
  <path d="m408.76 317.3c-2.4844-0.84375-5.207-0.66406-7.5586 0.50391-2.3516 1.168-4.1406 3.2227-4.9727 5.7109l-59.199 177.59h0.003906c-1.0039 2.5469-0.90234 5.3945 0.27344 7.8633 1.1797 2.4688 3.332 4.3398 5.9414 5.1602 1.0469 0.13672 2.1094 0.13672 3.1562 0 4.2422 0.011719 8.0156-2.6914 9.375-6.707l59.199-177.59h-0.003906c0.84375-2.4883 0.66406-5.207-0.50391-7.5586-1.1641-2.3516-3.2227-4.1406-5.7109-4.9727z"/>
  <path d="m563.46 158.95h-374.92c-7.8516 0-15.379 3.1172-20.93 8.668s-8.668 13.078-8.668 20.93v374.92c0 7.8516 3.1172 15.379 8.668 20.93s13.078 8.668 20.93 8.668h374.92c7.8516 0 15.379-3.1172 20.93-8.668s8.668-13.078 8.668-20.93v-374.92c0-7.8516-3.1172-15.379-8.668-20.93s-13.078-8.668-20.93-8.668zm-374.92 19.73h374.92c2.6172 0 5.125 1.0391 6.9766 2.8906 1.8516 1.8516 2.8906 4.3594 2.8906 6.9766v49.332h-394.65v-49.332c0-5.4492 4.418-9.8672 9.8672-9.8672zm374.92 394.65h-374.92c-5.4492 0-9.8672-4.418-9.8672-9.8672v-305.86h394.65v305.86c0 2.6172-1.0391 5.125-2.8906 6.9766s-4.3594 2.8906-6.9766 2.8906z"/>
  <path d="m524 218.14h19.734-0.003907c5.4492 0 9.8672-4.418 9.8672-9.8672 0-5.4492-4.418-9.8633-9.8672-9.8633h-19.73c-5.4492 0-9.8672 4.4141-9.8672 9.8633 0 5.4492 4.418 9.8672 9.8672 9.8672z"/>
  <path d="m464.8 218.14h19.734c5.4492 0 9.8672-4.418 9.8672-9.8672 0-5.4492-4.418-9.8633-9.8672-9.8633h-19.734c-5.4492 0-9.8672 4.4141-9.8672 9.8633 0 5.4492 4.418 9.8672 9.8672 9.8672z"/>
  <path d="m405.6 218.14h19.734-0.003907c5.4492 0 9.8672-4.418 9.8672-9.8672 0-5.4492-4.418-9.8633-9.8672-9.8633h-19.73c-5.4492 0-9.8672 4.4141-9.8672 9.8633 0 5.4492 4.418 9.8672 9.8672 9.8672z"/>
 </g>
</svg>
