<svg xmlns="http://www.w3.org/2000/svg" xmlns:xlink="http://www.w3.org/1999/xlink" role="img" width="21" height="21" viewBox="0 0 21 21" fill="none">
                  <title>Instagram Logo</title>
                  <path fill-rule="evenodd" clip-rule="evenodd" d="M6.78717 0.602863C7.85251 0.555338 8.19311 0.543457 10.902 0.543457C13.6109 0.543457 13.9515 0.555338 15.0208 0.598903C16.0862 0.646427 16.8109 0.816724 17.4446 1.06227C18.0981 1.31969 18.6565 1.66029 19.2109 2.21474C19.7654 2.7692 20.1099 3.32366 20.3634 3.98108C20.6089 4.6187 20.7792 5.34346 20.8268 6.40484C20.8743 7.47019 20.8862 7.80682 20.8862 10.5197C20.8862 13.2326 20.8743 13.5692 20.8268 14.6345C20.7792 15.6999 20.6089 16.4246 20.3634 17.0583C20.106 17.7118 19.7654 18.2702 19.2109 18.8246C18.6565 19.3791 18.102 19.7237 17.4446 19.9771C16.807 20.2227 16.0822 20.393 15.0208 20.4405C13.9555 20.488 13.6189 20.4999 10.906 20.4999C8.19311 20.4999 7.85647 20.488 6.79113 20.4405C5.72578 20.393 5.00103 20.2227 4.36737 19.9771C3.7139 19.7197 3.15548 19.3791 2.60103 18.8246C2.04657 18.2702 1.70202 17.7157 1.44855 17.0583C1.20301 16.4207 1.03271 15.6959 0.985187 14.6345C0.937662 13.5692 0.925781 13.2286 0.925781 10.5197C0.925781 7.81078 0.937662 7.47019 0.985187 6.4088C1.03271 5.34346 1.20301 4.6187 1.44855 3.98504C1.70598 3.33158 2.04657 2.77316 2.60103 2.2187C3.15548 1.66425 3.70994 1.31969 4.36737 1.06623C5.00103 0.820685 5.72578 0.650388 6.78717 0.602863ZM14.9326 2.40071C13.8791 2.35319 13.5663 2.34131 10.9009 2.34131C8.23558 2.34131 7.92271 2.34923 6.86925 2.40071C5.89499 2.44428 5.36826 2.61062 5.01578 2.74527C4.54845 2.92349 4.21578 3.14131 3.86726 3.48982C3.51875 3.83834 3.30489 4.17101 3.12271 4.63834C2.9841 4.99081 2.82172 5.51755 2.77816 6.4918C2.73063 7.54527 2.71875 7.85814 2.71875 10.5235C2.71875 13.1888 2.73063 13.5017 2.77816 14.5552C2.82172 15.5294 2.98806 16.0562 3.12271 16.4086C3.30093 16.876 3.51875 17.2086 3.86726 17.5571C4.21578 17.9057 4.54845 18.1195 5.01578 18.3017C5.36826 18.4403 5.89499 18.6027 6.86925 18.6463C7.92271 18.6938 8.23558 18.7057 10.9009 18.7057C13.5663 18.7057 13.8791 18.6938 14.9326 18.6463C15.9069 18.6027 16.4336 18.4364 16.7861 18.3017C17.2534 18.1235 17.5861 17.9057 17.9346 17.5571C18.2831 17.2086 18.497 16.876 18.6791 16.4086C18.8178 16.0562 18.9801 15.5294 19.0237 14.5552C19.0712 13.5017 19.0831 13.1888 19.0831 10.5235C19.0831 7.85814 19.0712 7.54527 19.0237 6.4918C18.9801 5.51755 18.8138 4.99081 18.6791 4.63834C18.5009 4.17101 18.2831 3.83834 17.9346 3.48982C17.5861 3.14131 17.2534 2.92745 16.7861 2.74527C16.4336 2.60666 15.9069 2.44428 14.9326 2.40071Z" fill="white"></path>
                  <path fill-rule="evenodd" clip-rule="evenodd" d="M5.77734 10.5198C5.77734 7.68809 8.07437 5.39502 10.9021 5.39502C13.7298 5.39502 16.0268 7.69205 16.0268 10.5198C16.0268 13.3475 13.7298 15.6445 10.9021 15.6445C8.07437 15.6445 5.77734 13.3515 5.77734 10.5198ZM7.57422 10.5196C7.57422 12.3572 9.06333 13.8463 10.901 13.8463C12.7386 13.8463 14.2277 12.3572 14.2277 10.5196C14.2277 8.68198 12.7386 7.19287 10.901 7.19287C9.06333 7.19287 7.57422 8.68198 7.57422 10.5196Z" fill="white"></path>
                  <path d="M16.2273 6.38915C16.8878 6.38915 17.4233 5.85366 17.4233 5.19311C17.4233 4.53256 16.8878 3.99707 16.2273 3.99707C15.5667 3.99707 15.0312 4.53256 15.0312 5.19311C15.0312 5.85366 15.5667 6.38915 16.2273 6.38915Z" fill="white"></path>
                </svg>