<svg xmlns="http://www.w3.org/2000/svg" xmlns:xlink="http://www.w3.org/1999/xlink" role="img" width="21" height="21" viewBox="0 0 21 21" fill="none">
    <title>LinkedIn Logo</title>
    <path d="M10.1163 8.10498V15.8225V8.10498ZM6.14062 8.10498V15.8225V8.10498Z" fill="white"></path>
    <path fill-rule="evenodd" clip-rule="evenodd" d="M2.30624 0.543457C1.36693 0.543457 0.605469 1.30492 0.605469 2.24422V18.7991C0.605469 19.7384 1.36693 20.4999 2.30624 20.4999H18.8611C19.8004 20.4999 20.5619 19.7384 20.5619 18.7991V2.24422C20.5619 1.30492 19.8004 0.543457 18.8611 0.543457H2.30624ZM7.5797 5.92285C7.5797 6.71934 6.93403 7.36502 6.13754 7.36502C5.34105 7.36502 4.69538 6.71934 4.69538 5.92285C4.69538 5.12637 5.34105 4.48069 6.13754 4.48069C6.93403 4.48069 7.5797 5.12637 7.5797 5.92285ZM4.8515 8.10561V15.8231H7.42401V8.10561H4.8515ZM11.3997 15.8231V11.1751C11.5302 10.5324 12.0094 9.97608 12.7667 9.97608C13.7022 9.97608 14.053 10.6777 14.053 11.7301V15.8227H16.6255V11.4182C16.6255 9.04062 15.3782 7.94925 13.6632 7.94925C12.3871 7.94925 11.7254 8.63588 11.3997 9.1392V8.10561H8.8272V15.8231H11.3997Z" fill="white"></path>
</svg>