<svg xmlns="http://www.w3.org/2000/svg" xmlns:xlink="http://www.w3.org/1999/xlink" role="img" width="22" height="17" viewBox="0 0 22 17" fill="none">
                  <title>Twitter Logo</title>
                  <path d="M6.91583 16.9827C14.7834 16.9827 19.0856 10.4648 19.0856 4.8129C19.0856 4.62777 19.0818 4.44347 19.0735 4.26001C19.9087 3.65625 20.6346 2.90281 21.2071 2.04512C20.4407 2.38578 19.616 2.61511 18.7508 2.71851C19.6339 2.18897 20.3119 1.3513 20.6317 0.352687C19.8053 0.842613 18.8901 1.1987 17.9156 1.39091C17.1351 0.559498 16.0239 0.0395508 14.7935 0.0395508C12.4314 0.0395508 10.5159 1.95506 10.5159 4.3163C10.5159 4.65195 10.5534 4.97843 10.6268 5.29156C7.07179 5.11269 3.91958 3.41066 1.81019 0.822599C1.44285 1.45471 1.23103 2.18897 1.23103 2.97244C1.23103 4.4564 1.98614 5.76648 3.13445 6.53285C2.43271 6.51117 1.7735 6.31853 1.19726 5.99789C1.19663 6.01584 1.19663 6.03334 1.19663 6.05252C1.19663 8.12397 2.67099 9.85351 4.6282 10.2455C4.26878 10.3434 3.8906 10.396 3.50033 10.396C3.22513 10.396 2.95703 10.3689 2.69643 10.3188C3.24098 12.0184 4.82 13.2551 6.69215 13.2897C5.2282 14.4371 3.38399 15.1205 1.37967 15.1205C1.03485 15.1205 0.694193 15.1009 0.359375 15.0613C2.25237 16.2747 4.50019 16.9827 6.91605 16.9827" fill="white"></path>
                </svg>