<?xml version="1.0" standalone="no"?>
<!DOCTYPE svg PUBLIC "-//W3C//DTD SVG 20010904//EN"
 "http://www.w3.org/TR/2001/REC-SVG-20010904/DTD/svg10.dtd">
<svg version="1.0" xmlns="http://www.w3.org/2000/svg"
 width="756.000000pt" height="756.000000pt" viewBox="0 0 756.000000 756.000000"
 preserveAspectRatio="xMidYMid meet">
<metadata>
Created by potrace 1.14, written by Peter Selinger 2001-2017
</metadata>
<g transform="translate(0.000000,756.000000) scale(0.100000,-0.100000)"
fill="#000000" stroke="none">
<path d="M1239 7556 c-2 -2 -26 -6 -54 -10 -27 -3 -61 -8 -75 -11 -14 -3 -36
-7 -50 -10 -66 -13 -215 -67 -294 -107 -88 -44 -171 -93 -192 -113 -6 -5 -27
-21 -47 -35 -60 -41 -228 -219 -284 -300 -100 -148 -169 -309 -216 -505 l-22
-90 -2 -2565 c-2 -2686 -3 -2609 38 -2770 133 -522 542 -908 1076 -1017 83
-17 223 -18 2643 -18 1405 0 2583 3 2616 8 190 23 405 106 581 223 228 152
393 360 517 654 25 60 61 207 74 300 4 30 7 1205 7 2610 l0 2555 -23 106 c-30
143 -95 316 -155 414 -23 37 -90 138 -106 159 -44 58 -235 237 -301 283 -132
90 -349 186 -474 209 -178 33 -149 33 -2722 33 -1392 1 -2533 -1 -2535 -3z"/>
</g>
</svg>
